<?xml version="1.0" encoding="utf-8"?><svg viewBox="0 0 1153 680" xmlns="http://www.w3.org/2000/svg" xmlns:xlink="http://www.w3.org/1999/xlink"><style>:root>svg{display:none}:root>svg:target{display:block}</style><svg viewBox="0 0 6 11" id="angle" xmlns="http://www.w3.org/2000/svg"><g clip-path="url(#aa)"><path d="M.175 9.955a.617.617 0 00.885.858l4.763-4.905-.442-.428.444.43a.617.617 0 00-.013-.874c-.007-.008-.015-.014-.022-.02L1.06.187a.617.617 0 00-.885.859L4.52 5.48.175 9.955z"/></g><defs><clipPath id="aa"><path d="M0 0h6v11H0z"/></clipPath></defs></svg><svg viewBox="0 0 24 24" id="angle-left" xmlns="http://www.w3.org/2000/svg"><path d="M15 19.75a.744.744 0 01-.53-.22l-7-7a.749.749 0 010-1.06l7-7a.75.75 0 011.06 1.06L9.061 12l6.469 6.47a.75.75 0 01-.53 1.28z" data-original="#000000"/></svg><svg viewBox="0 0 64 64" id="angle-right" xmlns="http://www.w3.org/2000/svg"><path d="M42.7 29.6L26.2 13.1l-2.4-2.4c-1.8-1.8-4.7 1-2.8 2.8L37.5 30l.9.9-15 15-2.3 2.3c-1.8 1.8 1 4.7 2.8 2.8l16.4-16.4 2.3-2.3c.9-.6.9-1.9.1-2.7z" data-original="#000000"/></svg><svg viewBox="0 0 502.664 502.664" id="icon" xmlns="http://www.w3.org/2000/svg"><path d="M153.821 358.226L0 274.337v-46.463l153.821-83.414v54.574L46.636 250.523l107.185 53.431v54.272zm26.273 29.358L282.103 115.08h32.227L212.084 387.584h-31.99zm168.749-29.358v-54.272l107.164-52.999-107.164-52.59v-53.927l153.821 83.522v46.183l-153.821 84.083z"/></svg><svg viewBox="0 0 1153 680" id="map" xmlns="http://www.w3.org/2000/svg"><path d="M68.444 479.983c-.501-.572-1.288-4.577-1.717-8.867-.429-4.361-1.144-8.15-1.502-8.508-.429-.357-2.288-1.215-4.147-1.93-2.861-1.001-3.934-2.002-6.008-5.22-2.36-3.718-2.431-4.076-1.645-6.721.43-1.502 1.216-2.931 1.717-3.074 1.43-.572 6.65 1.644 10.226 4.29 2.218 1.716 4.077 2.573 5.65 2.573 1.931 0 2.79.573 4.863 3.075 2.36 2.86 2.575 3.504 2.575 7.722-.072 6.864-.93 9.581-4.363 13.442-3.719 4.147-4.577 4.576-5.65 3.218zm-7.009-58.845c-.787-.501-.787-1.144-.071-3.504 1.287-4.504.715-5.148-4.577-5.148H52.21l-.5-3.646c-.43-3.218-.716-3.718-2.933-4.791-1.359-.643-2.503-1.573-2.503-2.145 0-1.215 5.578-9.438 6.436-9.438.358 0 .858.644 1.073 1.359.715 2.216 10.298 4.433 12.23 2.86.643-.572 3.86-1.144 7.508-1.359 5.864-.357 6.293-.286 6.651 1.073.787 2.86.358 4.933-1.43 7.364-2.289 2.86-3.576 8.437-2.36 9.867.643.787.5 1.001-.644 1.001-.858 0-2.646 1.43-4.434 3.575-2.717 3.218-3.29 3.575-5.936 3.575-1.644-.071-3.432-.286-3.933-.643zm141.886-4.862l-4.934-3.289-2.646 1.573c-3.934 2.216-7.724 1.93-12.086-.858-3.004-1.931-3.576-2.574-3.362-4.076.215-1.287-.572-2.645-3.504-5.648-3.647-3.79-3.862-3.933-5.578-3.003-1.859.929-5.578.643-7.581-.572-1.502-1.001 2.789-4.576 9.226-7.865 2.932-1.573 6.365-3.289 7.509-3.933 1.502-.786 4.005-1.144 8.081-1.144 7.366 0 10.656 1.43 13.946 6.221 4.863 7.007 6.436 8.294 12.586 10.153 5.435 1.573 5.864 1.644 7.08.5 1.645-1.43 5.149-1.573 5.149-.214 0 .572-.5 1.43-1.072 1.93-.716.572-1.073 2.145-1.073 4.648v3.789l-4.005-.357c-3.361-.286-4.434-.072-6.651 1.358-6.865 4.576-5.65 4.505-11.085.787z"/><path d="M81.102 413.344c-3.361-1.144-3.504-1.287-3.147-3.432.215-1.287 1.359-3.646 2.575-5.291 2.002-2.788 2.145-3.36 1.788-7.15-.43-3.503-.287-4.147.786-4.576.858-.357 1.931.072 3.218 1.287 1.788 1.788 2.146 1.859 8.654 1.43 3.719-.214 7.509-.5 8.51-.643 1.43-.215 2.074.214 3.004 1.787.715 1.216 1.716 2.145 2.288 2.145 1.574 0 3.29 2.86 3.29 5.577 0 1.788-.572 2.932-2.217 4.505-2.503 2.359-4.076 2.502-8.653.929l-3.29-1.144-4.649 2.932c-5.006 3.217-6.722 3.432-12.157 1.644zm82.6 5.292c-5.435-6.936-9.083-10.44-10.656-10.44-.787 0-1.859-.5-2.36-1.072-.715-.93-.644-1.358.429-2.574 1.073-1.215 1.144-1.716.429-2.86-1.287-2.073-.5-2.789 3.004-2.789 2.074 0 3.719.501 5.435 1.717 3.147 2.359 9.512 3.86 11.085 2.573.93-.786 1.359-.714 2.646.43 3.576 3.074 4.791 4.862 4.362 6.792-.286 1.645.072 2.145 2.575 3.503 3.29 1.859 3.719 2.86 1.359 2.86-.858 0-2.289.644-3.147 1.502-1.287 1.144-1.859 1.287-3.004.715-2.717-1.501-5.006-1.001-6.221 1.287-.573 1.144-1.359 2.288-1.717 2.503-.357.214-2.288-1.645-4.219-4.147zm-86.534 35.392c-1.787-2.217-2.932-2.932-5.292-3.289-1.859-.358-4.505-1.573-6.65-3.218-1.931-1.43-4.935-3.003-6.58-3.503-2.503-.715-3.075-1.216-3.075-2.503 0-.929-.644-3.503-1.43-5.791-1.86-5.434-1.86-5.649 1.072-7.007 1.36-.644 3.004-2.217 3.576-3.432 1.144-2.217 1.359-2.288 4.863-1.931 3.433.358 3.933.715 7.51 4.576 5.291 5.863 5.792 6.65 6.65 11.226.644 3.504 1.216 4.576 4.649 7.936 2.145 2.145 3.861 4.219 3.861 4.577 0 .357-.858 1.215-1.93 1.93-5.436 3.503-4.792 3.432-7.224.429zm24.03 9.152c-1.788-.929-2.861-2.145-3.433-3.861-.43-1.358-1.216-2.788-1.645-3.074-.5-.286-1.43-1.359-2.074-2.431-.715-1.073-2.217-2.074-3.433-2.36-1.215-.286-3.075-1.644-4.29-3.146l-2.146-2.574 2.503-.214c2.145-.215 3.004-.858 5.507-4.29 1.573-2.288 3.146-4.362 3.504-4.719.286-.358 1.359.286 2.288 1.358l1.717 2.002 3.146-1.287c1.717-.643 3.505-1.358 3.934-1.573.715-.286 8.152 8.652 8.152 9.724 0 .215-1.787 1.716-3.933 3.289l-3.933 2.86.143 5.291c.214 5.148.143 5.363-1.645 5.792-1.144.357-2.718.071-4.362-.787zm19.881-57.415c-.215-.858-.429-2.574-.429-3.789 0-2.145.214-2.288 3.146-2.789 4.077-.572 4.72-.143 4.72 3.289 0 3.146-.143 3.218-4.076 4.147-2.718.572-3.004.501-3.361-.858z"/><path d="M116.788 424.856c-.143-.215.143-1.359.644-2.574.858-2.074.715-2.646-1.574-7.651-2.074-4.576-2.431-5.863-2.002-8.723.5-3.932-1.288-8.437-3.29-8.437-.644 0-1.931-1.144-2.789-2.502l-1.502-2.503 2.36-4.29c1.931-3.503 2.789-4.433 4.863-5.005 4.077-1.144 5.507-.858 7.366 1.502 1.574 2.002 2.503 2.359 8.725 3.575 8.939 1.716 13.874 5.219 8.939 6.363-1.287.286-2.002 1.43-3.289 5.291-1.502 4.29-1.574 5.291-.858 7.722.429 1.502 1.716 3.575 2.86 4.505 2.36 1.93 2.432 2.574.644 6.435-1.287 2.86-1.43 2.931-6.58 3.861-2.932.5-7.294 1.358-9.726 1.859-2.431.5-4.577.715-4.791.572zm8.868-16.588l4.648-1.287.215-3.861c.286-5.649-.501-6.364-6.651-5.792l-5.006.501.214 5.005c.215 5.291.501 6.792 1.359 6.792.358 0 2.646-.643 5.221-1.358zm-44.769 34.105c-.357-.5-1-2.86-1.502-5.148-.715-3.503-1.501-4.79-5.22-8.794-2.503-2.717-4.148-4.934-3.79-5.434 1.859-3.361 4.72-6.149 5.72-5.72.644.214 1.503-.072 2.075-.858.858-1.144 1.358-1.144 5.936-.286l5.006.929.429 3.504c.357 2.359 1.215 4.218 2.574 5.791 3.147 3.575 2.932 7.579-.643 12.584-2.575 3.79-2.79 3.933-6.365 4.147-2.432.143-3.862-.143-4.22-.715zm53.422 7.794c-2.217-2.216-2.288-2.216-5.578-1.358-2.36.643-3.504.715-3.647.143-.572-1.645-2.503-2.86-4.649-2.86-2.932-.072-3.29-.286-7.223-5.363-3.576-4.647-3.79-5.076-2.217-5.648.572-.215 1.86-2.002 2.861-4.004 1.144-2.288 2.36-3.718 3.432-3.933 3.791-.929 16.735-3.217 18.094-3.217 1.502 0 7.294 6.649 11.299 13.013l2.074 3.432-5.292 5.577c-2.932 3.146-5.65 5.791-6.15 6.077-.429.215-1.788-.643-3.004-1.859zm-66.795-57.129c-2.145-1.215-1.573-9.08 1.216-17.66 2.288-6.864 2.789-7.794 6.722-11.726 4.22-4.219 4.291-4.219 6.722-3.361 2.003.715 3.29 2.145 6.58 7.579l4.148 6.721h10.584l2.861 3.647c1.573 2.002 2.86 3.861 2.86 4.218 0 .787-4.219 8.652-5.292 9.796-.572.572-3.647 1.144-8.081 1.358l-7.223.501-1.788-2.074-1.788-2.073-3.433 1.573c-3.79 1.644-12.229 2.574-14.088 1.501z"/><path d="M113.069 477.337c-5.292-5.72-6.508-7.293-7.008-9.295-.358-1.645-.215-2.002 1.43-2.36 1.788-.5 1.788-.572 1.645-6.077-.143-3.075-.072-5.72.143-5.863 5.149-4.219 7.58-5.506 10.083-5.506 2.217 0 2.933.286 3.576 1.788.93 2.002 1.001 2.073 5.292.929 3.004-.715 3.433-.643 4.792.787l1.573 1.573-2.002 1.43-2.003 1.501.501 8.437.501 8.437-7.224 3.647c-4.004 2.002-7.509 3.646-7.866 3.646-.286 0-1.86-1.358-3.433-3.074zm26.103-88.017c-1.359-1.215-3.79-2.002-8.653-2.86-6.222-1.144-6.866-1.43-8.725-3.789-1.931-2.431-2.146-2.503-5.221-2.002-1.788.214-3.647.572-4.076.786-.501.143-2.36-1.644-4.219-4.004l-3.362-4.29h-4.791c-2.718-.071-5.22-.286-5.65-.572-1.073-.715-7.437-11.011-7.437-12.012 0-.5 1-1.287 2.145-1.716 2.646-1.144 3.218-2.145 3.933-6.792.859-6.078 2.646-7.722 4.792-4.505.787 1.216 2.717 1.931 8.153 3.075 3.861.858 8.081 2.002 9.368 2.502 2.003.858 2.718.787 7.08-1.072l4.792-2.074 4.147 4.433c3.576 3.861 4.363 4.362 5.579 3.718 2.145-1.144 3.361-.929 7.008 1.43 2.503 1.573 4.22 2.145 6.723 2.145 2.932 0 3.432.215 3.79 1.716.644 2.574-.644 5.148-4.434 8.866-4.219 4.076-6.722 10.01-5.221 12.37.787 1.287.644 1.787-1.001 3.861-1.001 1.358-2.074 2.502-2.36 2.431-.286 0-1.359-.715-2.36-1.645zm-40.549 45.975c-.644-1.144-1.43-2.074-1.716-2.074-.358 0-.572-1.144-.572-2.502 0-1.788-.644-3.218-2.217-5.005-1.931-2.217-2.289-3.146-2.36-6.65l-.072-4.004 3.218-2.002 3.218-2.002 4.22 1.216c4.148 1.144 4.291 1.144 6.865-.358l2.718-1.573 2.002 4.505c2.289 5.148 2.289 5.291.858 8.866-4.219 10.224-4.004 9.938-10.87 12.298l-4.076 1.43-1.216-2.145zm44.554-6.506c-5.292-6.65-5.078-5.792-2.932-10.583l1.859-4.29-2.574-2.359c-3.719-3.361-4.148-5.005-2.718-10.296.644-2.502 1.43-4.505 1.645-4.505.215 0 1.359 1.144 2.503 2.574 1.931 2.431 2.217 2.503 5.078 2.074 3.647-.501 4.72.429 2.789 2.574-1.216 1.287-1.216 1.573-.215 3.361.572 1.072 2.146 2.287 3.433 2.716 3.218 1.001 13.945 13.085 12.73 14.3-.716.715-17.164 8.151-17.951 8.08-.429 0-2.074-1.644-3.647-3.646zM79.17 492.566c-1.787-1.144-3.503-2.073-3.932-2.145-.573 0-3.362-4.075-4.506-6.506-.071-.286 1.716-2.574 4.076-5.148 4.649-5.148 5.793-8.366 5.793-16.159v-4.147l4.005-2.717c4.506-3.003 7.009-3.003 8.153 0 .357 1.001 1.001 1.787 1.43 1.787.43 0 1.359 1.43 2.146 3.146 1 2.36 2.002 3.504 3.79 4.219 2.574 1.072 4.791 3.575 4.791 5.434 0 .643 2.289 3.503 5.006 6.506 4.506 4.862 5.006 5.649 5.006 8.366 0 3.718-1.144 4.004-4.863 1.144-2.288-1.716-2.789-1.859-7.795-1.43-2.932.214-5.506.572-5.72.715-.215.214-.573 1.501-.86 2.788-.428 2.074-1 2.574-4.648 4.004-6.364 2.503-8.152 2.574-11.871.143z"/><path d="M142.533 398.186c-1.573-1.716-1.072-3.646 2.074-7.507 3.218-4.076 3.361-4.433 2.432-6.22-1.359-2.503.5-6.865 4.791-11.155 4.792-4.719 6.365-4.79 10.155-.715l2.861 3.004 2.002-1.359c1.788-1.216 2.003-1.215 2.861-.071.858 1.215 2.432 10.224 2.432 14.3 0 1.859-.358 2.502-1.645 2.788-.858.215-3.29 1.93-5.435 3.718-3.004 2.574-4.22 3.218-5.364 2.789-2.575-.858-11.228-.287-12.372.786-1.43 1.43-3.361 1.287-4.792-.358zM14.736 564.21c-.5-1.073-1.073-2.217-1.216-2.503-.143-.286.5-.5 1.43-.5.93-.072 2.146-.358 2.718-.715.858-.572.93-.93.214-2.145-1.501-2.36-1.072-3.289 1.86-4.648 2.717-1.215 4.791-4.075 4.005-5.434-.286-.357-1.502-.643-2.86-.643-2.718 0-5.794-2.646-6.509-5.577-.643-2.503.143-2.717 2.575-.644 1.645 1.359 3.075 1.931 5.077 1.931 2.575 0 2.932.214 3.934 2.502 1.43 3.432 2.145 11.226 1.144 12.942-.715 1.215-.858 1.144-1.573-1.001-.501-1.287-1.216-2.288-1.717-2.288-.429 0-2.217 2.359-4.005 5.362-1.716 2.932-3.36 5.363-3.647 5.363-.215 0-.858-.93-1.43-2.002zm94.114 29.458c-4.72-.501-9.154-.787-9.798-.572-.715.214-1.716.071-2.36-.286-.858-.501-.5-1.145 2.074-3.719l3.218-3.074-1.43-2.788c-1.573-3.146-1.788-2.932 4.505-4.148 2.289-.5 4.291-1.072 4.434-1.358.143-.214 0-2.074-.357-4.004-.644-3.289-.501-3.647 1.859-7.15 1.359-2.002 2.503-3.861 2.503-4.147 0-.286-1.645-.501-3.647-.501h-3.719l.501-5.72c.286-3.646.143-6.792-.429-8.865-.429-1.788-.644-3.504-.358-3.79.358-.286 3.075-.5 6.079-.429 4.72.072 5.65.357 6.722 1.644 1.574 1.931 1.645 3.29.215 4.72-1.144 1.144-1.287 3.36-.429 5.648.357.858.071 2.86-.715 5.22-1.574 4.576-1.288 5.291 3.218 8.651 1.788 1.359 3.432 2.932 3.576 3.575.214.644.572 4.004.786 7.579l.501 6.507-3.004 1.215c-3.004 1.144-3.075 1.144-2.574 4.004.5 3.361 1.573 3.218-11.371 1.788zm-56.998 28.028c-.643-1.287-.93-2.717-.715-3.075.286-.429 4.005-3.003 8.367-5.791 7.724-5.005 7.867-5.077 9.154-3.718.715.786 1.931 1.43 2.646 1.43 2.503 0 1.717 2.717-1.073 4.075-1.93.93-2.717 1.859-3.575 4.505l-1.145 3.36-5.149.501c-2.789.286-5.65.643-6.293.786-.715.215-1.502-.5-2.217-2.073z"/><path d="M59.576 653.942c-.215-.858-.43-3.861-.43-6.578 0-4.719-.142-5.148-3.647-10.439-3.218-4.933-3.504-5.791-3.075-8.151.572-3.217 2.146-3.932 8.868-3.932 5.364 0 5.435-.072 7.152-4.648.643-1.573 1.787-3.217 2.646-3.646 3.146-1.502 3.861-2.646 3.647-5.22-.143-2.216-.5-2.645-2.145-2.788-1.931-.286-2.933-1.359-6.15-6.721l-1.574-2.574 6.15-3.361 6.15-3.432 3.862 3.861c4.22 4.147 4.506 4.719 2.646 5.434-3.504 1.216-3.79 2.074-3.29 10.225.501 8.58.573 8.222-4.862 15.372l-2.718 3.647-.215 11.368-.214 11.44-3.576.787c-1.93.5-4.72.858-6.15.929-2.146.072-2.718-.214-3.075-1.573z"/><path d="M48.706 615.904c-.287-.715.142-1.859 1.144-2.86 1.43-1.502 1.573-2.217 1.144-5.72l-.5-3.933h5.291c6.437 0 9.584.572 10.084 1.788.286.786-2.646 2.86-15.09 10.94-1.43.858-1.645.857-2.074-.215zm-15.591-18.447c-.715-2.431-1.86-5.148-2.717-6.006l-1.43-1.573 3.575-1.787 3.576-1.859 3.862 2.145c2.073 1.144 5.935 3.217 8.581 4.647l4.792 2.503-1.43 2.431c-1.43 2.359-1.43 2.431-5.578 2.002-2.861-.215-5.293 0-7.653.786-1.86.644-3.575 1.216-3.861 1.216-.287 0-1.002-2.002-1.717-4.505zm50.132-1.43c-3.504-3.217-4.362-4.576-5.578-8.366-.787-2.502-2.503-6.935-3.862-9.866-1.359-2.932-2.717-6.65-2.932-8.294-.5-3.075-4.648-11.226-6.865-13.442-.716-.787-2.289-1.288-3.72-1.288-2.002 0-2.502-.285-2.717-1.644-.143-1.287-.572-1.573-2.431-1.358-1.288.071-2.575-.286-3.004-.858-.715-.787-.214-1.073 2.86-1.502 2.075-.286 4.363-1.001 5.007-1.573 1.073-1.001 1.359-.786 3.075 1.931 1.073 1.644 2.288 4.004 2.79 5.291 1.644 4.433 2.216 4.933 6.292 5.219 3.862.358 3.934.286 4.863-1.93.93-2.217 1.002-2.288 4.291-1.788l3.433.429 2.646-4.29c1.43-2.431 2.432-4.719 2.146-5.076-.215-.429-1.717-.715-3.29-.715-2.36 0-2.86-.215-2.646-1.287.214-1.001 1.144-1.287 5.578-1.43 4.148-.215 5.721-.572 6.865-1.645 1.645-1.573 2.432-1.215 2.432 1.073 0 2.288 1.359 3.36 3.075 2.431 2.432-1.287 3.004.357 3.004 8.937v8.008l2.717.215c1.431.143 2.646.5 2.646.857 0 .358-.786 1.788-1.787 3.218-1.145 1.787-1.574 3.218-1.359 4.505.929 4.719 1.001 4.719-4.005 5.648-2.503.572-4.935 1.287-5.292 1.644-.43.358-.143 1.788.643 3.575l1.36 2.932-3.433 3.289c-3.433 3.361-3.433 3.361-1.931 4.576 2.002 1.645 1.93 2.145-.787 4.004-4.434 2.932-5.507 2.717-10.084-1.43zm-57.212-8.437c-1.645-1.287-10.155-14.801-9.654-15.301.143-.143 1.859-1.001 3.79-1.788L23.675 569l2.217 2.646 2.289 2.645 2.36-1.215c3.218-1.573 3.79-1.502 5.149.858 1.144 1.859 1.144 2.002 0 2.717-1.145.715-1.145 1 0 4.003l1.144 3.29-2.146.857c-1.144.501-3.218 1.645-4.505 2.575-2.36 1.573-2.431 1.572-4.148.214z"/><path d="M26.607 569.429c-1.072-1.358-2.288-2.502-2.789-2.502-.429 0-2.646.929-4.863 2.002-2.288 1.072-4.362 1.787-4.648 1.501-.286-.286-1.717-.858-3.147-1.287-3.075-1.001-3.504-2.431-3.504-12.369 0-5.077-.358-7.293-2.217-12.513-2.86-8.151-4.077-12.512-4.649-16.802-.429-3.075-.286-3.432.93-3.432.715 0 1.93.929 2.575 2.145 1.644 2.717 2.717 2.645 6.65-.143 2.933-2.145 3.362-2.217 7.724-1.788 5.435.501 6.007.072 6.293-4.933.215-3.861 0-3.718 6.08-2.789 2.073.358 2.288.572 1.93 2.36-.572 2.717 1.287 4.576 3.576 3.718 1.359-.501 2.002-.286 3.075.929 3.29 3.79 3.29 3.79 2.003 7.651l-1.216 3.575 2.646 3.932c2.074 3.075 2.574 4.505 2.36 6.578-.215 2.646-.286 2.717-3.218 2.717-2.718 0-3.219.286-4.864 2.646-2.073 3.074-2.145 3.861-.643 7.722 1.144 2.717 1.073 2.86-.358 4.075-.786.715-1.93 2.574-2.431 4.147-.644 1.788-1.788 3.289-3.218 4.147l-2.146 1.287-1.93-2.574zm-6.078-5.934l3.075-4.791 1 2.288c1.288 3.146 2.647 2.932 4.077-.715.93-2.574 1.001-4.004.5-8.437-1.143-8.794-2.502-10.653-7.794-10.653-1.002 0-2.718-.858-3.862-1.931-1.716-1.644-2.217-1.787-3.79-1.072-2.432 1.144-2.289 4.004.429 7.65 1.502 1.931 2.86 2.932 4.362 3.218 3.433.5 3.147 1.787-.93 3.432-3.718 1.573-3.861 1.859-2.503 5.219.43.858 0 1.216-1.645 1.573-1.358.286-2.216.858-2.216 1.573 0 2.002 3.647 7.508 5.006 7.508.786 0 2.431-1.788 4.29-4.862zm21.454 47.833c-4.72-1.215-5.435-1.93-6.722-6.22-.358-1.359 0-1.645 3.29-2.431 2.073-.429 5.22-.715 7.008-.644l3.218.286.215 4.147c.214 3.79-.573 6.364-1.931 6.149-.215-.071-2.503-.643-5.078-1.287z"/><path d="M54.355 601.318c-2.002-.214-2.002-.572-.214-3.289 1.93-3.003 1.859-3.503-1.216-4.933-1.502-.715-5.292-2.717-8.51-4.505-5.364-3.074-5.793-3.503-6.437-6.435-.644-2.717-.572-3.075.5-3.075 2.29 0 2.146-1.358-.357-5.147-1.43-2.074-2.574-4.362-2.574-5.077 0-1.787 1.287-4.218 3.003-5.577 1.43-1.144 1.43-1.215.215-5.148-1.216-3.789-1.216-4.075-.072-5.863.858-1.287 1.717-1.787 3.147-1.716 1.073.072 2.718-.214 3.647-.715 1.502-.858 1.931-.715 4.649 2.002 2.145 2.074 3.432 2.789 4.29 2.503.859-.358 1.36-.072 1.645 1.001.287 1.287.93 1.572 3.362 1.572 2.789 0 3.075.144 5.72 4.362 1.86 2.789 3.148 5.935 3.72 8.723.429 2.431 2.002 6.721 3.36 9.51 3.29 6.649 4.363 10.367 3.148 11.44-.43.429-3.076 2.001-5.865 3.503-6.436 3.432-6.937 3.861-6.508 5.649.358 1.358.072 1.501-3.36 1.501-2.075 0-4.435-.143-5.293-.286zm17.307-42.828c-2.646-.358-3.934-1.359-3.934-3.146 0-1.859-4.862-10.582-6.15-11.083-.572-.214-1.716.429-2.503 1.502-1.43 1.787-1.86 1.859-6.222 1.716l-4.791-.215-.358-2.86c-.214-1.573-1.502-4.433-2.789-6.363l-2.36-3.504 1.216-3.718 1.287-3.789-2.646-3.289c-2.789-3.361-3.146-3.575-6.007-3.361-1.287.143-1.645-.143-1.43-1.144.214-1.072.93-1.287 3.575-1.287 1.86 0 3.79-.429 4.291-1.001 1.001-1.001.072-2.002-4.791-5.577-2.074-1.501-2.074-1.573-.787-3.003 1.001-1.144 2.217-1.501 4.506-1.501 2.789 0 3.575.429 7.509 4.004l4.362 4.075 2.217-2.502c1.216-1.359 3.361-4.076 4.72-5.935 1.86-2.574 3.218-3.718 5.364-4.29 4.577-1.358 5.935-2.359 6.793-5.219 1.36-4.076 1.788-4.219 5.865-1.645 3.146 1.931 4.148 2.217 6.293 1.859 5.364-1.072 5.22-1.144 6.365 3.79 1.216 5.005 1.287 4.862-3.862 8.437-1.43 1.001-1.43 1.001.215 4.075 1.644 3.075 1.644 3.146.429 5.72-1.216 2.503-1.43 2.646-4.72 2.646-3.576 0-7.724 1.573-7.724 2.86 0 .429.5 1.787 1.144 2.931.93 1.859 1.002 2.789.358 5.363-1.073 4.075.143 8.365 2.79 10.296 1.5 1.072 1.858 1.787 1.572 3.503-.286 2.145-.214 2.217 2.718 2.217h2.932l-1.645 2.931c-1.645 2.932-1.645 2.932-5.006 2.503-3.218-.358-3.504-.286-4.505 1.716-1.288 2.431-1.574 2.574-4.291 2.288z"/><path d="M121.079 544.476c-1.073-2.503-2.36-3.003-9.369-3.504-2.36-.214-9.225 1.001-10.155 1.788-.93.786-1.144.429-1.93-3.218-.573-2.574-1.431-2.431-4.077.572-2.146 2.36-2.432 2.503-7.08 2.503-6.508 0-8.224-.787-9.297-4.004-.644-2.002-.644-3.289 0-5.649.715-2.574.643-3.432-.358-5.362-1.645-3.218-.786-3.79 5.936-3.933 2.932 0 3.147-.214 5.006-3.503l1.86-3.432-1.502-2.717-1.574-2.717 2.933-2.431 3.003-2.503-.93-4.218c-.5-2.36-1.072-4.862-1.215-5.649-.286-1.072.286-1.787 2.288-2.86 2.575-1.43 3.361-2.288 4.148-4.862.286-1.001 1.216-1.215 4.649-1.215 2.36 0 4.505.357 4.791.786.215.358 1.43 1.359 2.646 2.074 1.144.715 3.004 2.86 4.005 4.719 1.788 3.289 2.074 3.503 7.08 4.933 2.861.787 5.507 1.931 5.936 2.503.786 1.358.858 6.149 0 9.009-.858 2.931.071 4.29 3.218 4.862 1.859.357 2.932 1.144 4.005 3.003.858 1.43 2.503 3.003 3.647 3.503 1.502.572 2.432 1.716 3.075 3.575.501 1.502.787 3.003.572 3.289-.143.286-3.003 2.002-6.293 3.79-6.865 3.718-7.366 4.218-7.724 7.436-.143 1.859-.786 2.645-3.218 4.075l-3.003 1.788-1.073-2.431zm132.589-154.154c-1.001-.358-2.718-.644-3.79-.644-1.288-.071-2.646-.786-3.505-1.93-1.287-1.573-1.788-1.788-4.219-1.359l-2.789.429v-2.788c0-2.217-.286-2.932-1.359-3.218-.787-.214-2.074-1.716-2.861-3.289-1.501-2.931-2.932-3.575-5.006-2.288-.5.286-1.787.358-2.86.072-1.502-.358-1.931-1.001-2.217-3.289-.286-2.288-.644-2.789-1.788-2.646-.787.143-2.861.429-4.649.644-3.075.429-3.361.286-5.149-2.074-1.215-1.573-3.861-3.36-7.294-5.005-4.148-2.002-5.507-3.003-5.864-4.433-.286-1.072-1.073-2.002-2.146-2.216-2.002-.501-11.013-9.867-11.013-11.44 0-.572.786-3.003 1.788-5.291 1.001-2.36 1.788-4.719 1.788-5.363 0-.572 1.287-1.716 2.789-2.502 2.503-1.216 2.932-1.859 3.575-5.077.429-2.073 1.574-4.647 2.575-5.791 1.645-2.002 1.716-2.145.715-5.434-1.788-5.863-1.43-7.722 2.432-12.87 1.501-1.931 2.217-2.288 4.791-2.288 2.36 0 3.075.286 3.361 1.358.286 1.287 4.363 4.362 5.65 4.362.787 0 5.578-4.362 6.365-5.792.429-.858.357-2.359-.215-4.433-1.001-3.789-.143-8.937 1.717-10.081 1.931-1.216 2.646.071 3.361 6.578l.644 5.934 4.577 4.791c6.007 6.292 7.151 6.435 9.082 1.072 3.576-9.938 4.863-10.868 15.447-10.868 9.226.072 9.44.143 11.872 6.006 2.932 6.793 3.647 7.436 6.365 5.863l2.073-1.287 5.078 9.653 5.078 9.652 4.434-.429c3.218-.286 4.791-.071 5.792.644 1.216.929 1.145 1.215-1.501 6.649l-2.861 5.72 1.573 5.148c1.359 4.29 1.431 5.363.715 6.435-.858 1.073-1.287 1.144-4.219.358-1.788-.501-4.577-.858-6.222-.858-2.431 0-3.361-.501-6.365-3.432-1.931-1.859-5.578-4.505-8.152-5.863-4.363-2.288-4.792-2.36-7.509-1.573-1.645.5-2.933 1.358-2.933 1.859 0 .5 1.002 3.074 2.146 5.577 1.859 4.004 2.074 4.933 1.43 6.721-.5 1.144-.643 3.503-.429 5.362.501 3.647.644 3.504-3.933 4.433-1.502.358-2.074 1.216-3.505 5.863l-1.716 5.434 2.146 1.716c2.86 2.36 4.004 2.217 6.65-1.072 1.931-2.431 2.718-2.86 5.007-2.86 2.145 0 3.003.357 3.861 1.644 1.073 1.645.93 1.859-4.934 7.722-5.221 5.077-6.007 6.292-5.721 7.865.786 4.004-2.861 5.863-8.153 4.219z"/><path d="M366.876 342.488c-13.087-5.791-17.735-8.222-26.961-14.371-8.439-5.506-11.585-7.222-12.801-6.936-1.43.358-21.669.429-32.897.143-2.646-.071-5.078-.429-5.435-.786-.358-.358-2.646-4.505-5.078-9.152-3.647-6.793-4.291-8.58-3.504-9.152.572-.358 2.074-1.287 3.433-2.145l2.36-1.502-.429-4.933-.501-4.862 3.075-1.359c4.22-1.787 10.584-8.794 10.584-11.583 0-1.072.286-2.216.644-2.431 1.144-.715 4.506 2.646 5.864 5.863 1.717 4.076 1.717 6.793 0 8.366-1.358 1.215-1.573 1.215-5.077 0-3.505-1.287-3.576-1.287-6.794.286-1.788.858-3.433 2.073-3.719 2.717-.429 1.215 1.001 12.369 1.788 13.656.572.858 7.795 3.79 9.44 3.79.644 0 2.86-1.788 5.006-3.933l3.862-3.932h20.239c11.227 0 20.31.286 20.524.643.286.358-1.358 1.645-3.504 2.86-2.217 1.216-4.148 2.717-4.434 3.361-.429 1.144 4.22 6.435 6.58 7.364.929.358 2.86.072 5.292-.786 4.863-1.645 6.293-1.645 10.799.143 2.932 1.144 4.505 1.287 9.01.929l5.436-.429-.501 3.289c-.501 3.146-.429 3.361 1.502 4.147 3.433 1.43 6.937 1.001 10.298-1.215l3.075-2.074-.429-4.79c-.358-3.79-.143-5.077.715-5.935 1.144-1.215 1.001-1.215 12.158 5.148 1.716 1.001 3.933 3.146 5.292 5.291l2.288 3.575-1.501 2.074c-1.931 2.574-1.931 2.288.357 7.65 1.001 2.503 1.645 4.719 1.359 5.005-.286.286-1.502.072-2.789-.429-2.217-.858-2.36-.786-4.935 2.074-1.859 2.073-3.575 3.146-5.649 3.646-1.645.358-4.291 1.788-5.936 3.075-1.788 1.501-4.577 2.86-7.295 3.575-2.431.643-4.505 1.072-4.648 1.072-.143 0-7.438-3.217-16.163-7.007zm10.442-64.421c-3.076-2.36-5.65-5.005-5.865-5.863-.214-.93-1.072-5.22-1.859-9.581-1.359-6.936-1.359-8.294-.572-10.725.786-2.288 1.502-3.003 3.719-3.718 1.644-.572 5.292-3.361 9.511-7.365 6.007-5.648 7.08-6.363 8.796-6.006 1.717.358 2.289-.071 5.293-3.932 1.787-2.36 4.791-5.291 6.651-6.578 1.859-1.287 6.436-4.576 10.155-7.365 3.718-2.86 7.652-5.648 8.653-6.363 2.217-1.43 16.663-3.718 30.251-4.791 5.65-.429 12.229-1.43 15.161-2.216 2.861-.858 5.65-1.287 6.293-1.073 2.003.787 1.288 4.505-1.358 7.15-2.718 2.717-2.718 2.717-18.666 4.433-11.585 1.216-14.875 2.431-24.458 8.795-2.217 1.43-6.007 3.432-8.296 4.361-2.288 1.001-6.365 3.504-8.939 5.577-2.575 2.145-7.295 5.792-10.441 8.151-6.008 4.433-13.517 12.441-16.592 17.661-1.788 3.003-1.788 3.36-1.43 11.797.214 4.791.5 9.295.643 10.082.43 2.431-1.144 1.859-6.65-2.431zm95.544-148.363c-1.359-3.503 1.073-6.149 4.291-4.719 2.074 1.001 2.145 1.573.214 3.933-1.645 2.145-3.862 2.502-4.505.786zm11.871 0c-1.931-.858-2.217-1.287-1.573-2.359 1.001-1.859 7.795-3.575 8.653-2.145 1.288 2.002.644 3.575-1.859 4.576-1.359.572-2.575 1.001-2.646 1.001-.143-.072-1.287-.501-2.575-1.073zm-20.882-1.359c0-3.074 4.934-3.289 5.006-.214 0 .572-3.075 2.002-4.362 2.002-.358 0-.644-.787-.644-1.788zm-.644-8.722c-1.43-5.077-.858-5.434 5.221-3.361 3.147 1.073 3.361 1.287 3.146 3.361-.214 2.216-.357 2.288-3.933 2.502l-3.719.215-.715-2.717zm-27.462-2.36c-1.215-1.358-1.215-1.43 1.145-2.359 8.582-3.575 12.872-4.934 13.516-4.29.572.643.143 5.934-.501 5.934-.143 0-2.717.429-5.792 1.073-7.009 1.358-6.866 1.358-8.368-.358zm32.754-4.576l-2.145-.929 3.933-1.216c3.361-1.001 4.005-1.072 4.935-.143.858.858.858 1.216.071 2.145-1.072 1.359-3.861 1.359-6.794.143zm-28.534-4.004c-.215-.429-1.573-.715-2.932-.715-3.004 0-3.147-1.358-.358-3.432l2.074-1.501 4.005 1.573c2.217.858 3.933 1.787 3.933 2.145 0 .572-4.291 2.645-5.578 2.645-.357 0-.93-.357-1.144-.715zM14.307 304.736c-1.145-1.502-4.291-5.935-7.009-9.796-5.292-7.65-5.292-8.294-.214-8.294 2.217 0 2.86.358 4.076 2.36.787 1.287 2.146 2.931 2.932 3.718 1.43 1.287 1.502 1.287 3.576-.215 1.287-1.001 2.217-1.287 2.503-.858.787 1.216 3.933 11.655 3.933 13.013 0 1.502-.357 1.716-4.362 2.36-3.147.429-3.361.357-5.435-2.288zm131.516 39.683c-.501-.501-.858-1.144-.858-1.43 0-.358-1.359-3.504-3.004-7.007l-2.932-6.435h-2.789c-2.503 0-2.789-.215-2.36-1.43.286-.93-.143-2.431-1.073-3.933-1.573-2.574-2.717-2.931-6.436-1.859-2.789.787-7.724-.429-9.726-2.431-1.717-1.716-1.86-1.787-3.862-.715-1.144.572-2.217 1.073-2.431 1.073-.144 0-.501-1.859-.716-4.147-.286-2.217-1.144-6.292-2.002-8.938-1.859-5.577-1.716-5.791 3.433-6.578 2.288-.357 3.933-.071 6.651 1.073 3.79 1.644 4.434 2.645 5.506 8.723.429 2.502.572 2.645 4.148 3.074 2.003.215 4.792.358 6.15.215 2.217-.215 2.646-.644 4.363-4.147 1.073-2.217 1.788-4.219 1.573-4.505-.143-.286-2.288-1.644-4.863-3.003-3.361-1.93-4.72-3.146-5.292-4.79-1.144-3.361-1.001-4.004 1.645-6.721 2.145-2.288 2.789-2.503 5.578-2.288 3.004.214 3.147.357 5.149 4.29 1.144 2.288 4.005 8.508 6.437 13.942l4.362 9.867 4.148.572c3.862.572 4.291.501 6.007-1.072l1.788-1.645 1.716 2.145c.93 1.144 2.718 3.432 3.862 5.077l2.146 3.003-2.575.858c-1.43.5-4.934 2.931-7.795 5.434-4.148 3.646-5.292 5.076-5.507 6.864-.143 1.859-.929 2.645-4.505 4.933-4.935 3.075-4.792 3.003-5.936 1.931z"/><path d="M187.945 328.546c-2.073-2.217-2.86-2.503-7.509-2.932l-5.22-.5-4.935-6.721c-2.717-3.647-5.363-6.721-5.793-6.721-.5 0-1.644.786-2.503 1.787-1.501 1.716-3.647 2.145-6.722 1.359-1.216-.358-2.861-3.289-7.008-12.727-3.004-6.721-5.436-12.656-5.436-13.156 0-.644 1.431-.858 4.863-.858 5.865 0 24.459-3.289 25.603-4.505.5-.5 1.359-4.218 2.002-8.365.644-4.147 1.431-7.722 1.717-8.08.357-.286 2.002-.929 3.79-1.43 3.004-.858 3.361-1.287 7.08-7.936 3.576-6.364 4.291-7.222 8.224-9.51 5.507-3.217 7.009-4.647 10.513-9.724 1.502-2.216 3.075-4.075 3.433-4.075.429 0 2.36 1.144 4.362 2.574 3.361 2.431 3.576 2.788 3.147 4.862-1.073 4.504-.072 6.864 2.932 6.864 1.931 0 2.002.357 3.218 8.866l.858 6.435-2.002 1.43c-4.22 3.003-7.366 6.22-11.443 11.583l-4.219 5.434 1.359 6.506c.715 3.575 1.43 7.079 1.645 7.794.286 1.072-.143 1.287-2.933 1.287-3.003 0-3.361.214-6.15 3.789s-2.932 4.076-2.86 8.437c.071 2.503.286 5.363.572 6.364.429 1.287.143 2.288-1.002 3.646-.929 1.073-1.859 3.432-2.073 5.22-.43 2.645-.93 3.503-2.575 4.361-1.144.572-2.217 1.073-2.288 1.073-.144 0-1.359-1.144-2.647-2.431zM321.25 419.78c-7.295-2.932-10.656-3.218-19.095-1.645-5.149.93-5.864.93-10.37-.357-4.648-1.287-4.934-1.502-6.722-4.934l-1.788-3.575-5.364-.5c-7.437-.644-7.795-.501-7.795 3.789 0 5.077-1.501 5.506-10.87 3.146-7.652-1.859-8.296-1.787-11.228 1.359-1.001 1.001-2.145 1.859-2.574 1.859-.859 0-3.219-7.079-3.219-9.653 0-.715 1.073-2.502 2.432-3.932 1.859-2.074 2.718-4.076 3.719-8.223l1.287-5.505 2.575.429c7.866 1.501 8.295 1.43 10.226-1.144 1.216-1.573 1.717-3.003 1.502-4.147-.286-1.502.644-2.86 5.793-7.865 3.361-3.361 6.079-6.364 6.079-6.65 0-.357-.859-1.716-1.931-3.074-1.788-2.145-2.36-2.431-5.364-2.431s-3.504.214-5.721 2.931c-2.217 2.646-2.646 2.86-4.005 2.145-1.859-1.001-1.859-1.43-.215-6.149 1.145-3.36 1.502-3.646 4.434-4.361l3.147-.787-.215-4.29c-.143-2.288.143-5.148.573-6.292.643-1.716.429-2.717-1.431-6.649-1.716-3.647-2.002-4.862-1.287-5.291 1.645-1.001 3.29-.644 7.152 1.644 5.935 3.504 7.795 4.934 8.51 6.793.5 1.43 1.073 1.716 3.79 1.716 1.716 0 5.221.643 7.724 1.43 2.503.715 4.577 1.358 4.648 1.43.072 0 .93-1.144 1.931-2.574l1.717-2.574-1.717-5.005-1.645-5.005 1.86-3.718c1.001-2.002 2.574-4.791 3.504-6.221l1.645-2.645 13.159.143 13.158.071 11.014 7.222c7.795 5.076 13.874 8.437 20.668 11.297 5.292 2.288 10.941 4.719 12.515 5.362 10.369 4.648 9.154 4.433 14.66 2.932 3.362-.858 5.865-2.074 7.867-3.79 1.859-1.573 3.933-2.645 5.721-2.86 2.003-.286 3.361-1.072 5.078-2.931 3.29-3.79 6.794-3.218 3.862.643-1.502 2.074-1.288 3.79.786 5.577l1.788 1.573-2.002 2.86c-1.073 1.645-3.433 4.29-5.221 5.863-3.003 2.717-3.862 3.075-10.012 4.147-6.722 1.144-10.227 2.717-13.302 6.149-.643.715-3.433 2.002-6.079 2.789-2.717.786-6.865 2.788-9.225 4.433-3.933 2.717-4.434 2.931-5.078 1.787-1.144-2.002-2.217-1.501-7.008 3.289-3.862 3.933-4.506 5.005-4.792 7.651-.143 1.716-.357 3.146-.429 3.146-.143.071-2.145 1.644-4.577 3.503-4.219 3.218-4.505 3.647-7.723 11.726-5.149 12.656-7.009 16.231-8.654 16.374-.786.071-4.291-1.001-7.866-2.431z"/><path d="M251.737 280.641c-4.505-1.859-5.936-3.146-9.941-8.723-4.076-5.72-7.151-14.229-8.653-24.096-1.144-7.15-1.43-8.079-2.789-8.222-1.073-.143-2.36.786-4.506 3.36-2.145 2.503-3.575 3.647-4.791 3.647-2.289 0-2.718-1.287-1.359-4.505 1.001-2.502 1.001-2.574-.93-4.218-1.072-.93-3.218-2.503-4.648-3.432-2.861-1.931-3.075-2.574-1.788-5.363.858-1.93 1.073-2.073 7.366-3.289 5.721-1.072 7.223-2.145 7.795-5.434 1.788-10.296 2.646-12.941 4.577-13.799 7.009-3.218 9.369-3.647 17.951-2.86 12.729 1.144 12.944 1.215 12.944 3.217 0 1.502-.358 1.788-2.146 1.788-1.215 0-2.36.429-2.574 1.001-.715 1.787 1.788 9.009 5.506 16.159 3.362 6.363 3.648 7.293 4.649 15.73.572 4.862 1.716 10.796 2.503 13.156 1.645 5.076 1.645 8.508.072 17.946l-1.216 7.15-4.291 1.144c-5.721 1.645-9.297 1.502-13.731-.357zm-107.845 75.646c-2.145-1.358-3.504-1.716-5.364-1.43-2.288.358-2.86 0-6.579-3.718l-4.148-4.075-3.003 1.215a220.148 220.148 0 00-5.293 2.074c-1.859.715-2.646.715-4.648-.286-1.359-.572-4.863-1.502-7.795-2.002-4.291-.715-5.864-1.287-7.652-3.003l-2.289-2.216 4.72-5.292 4.72-5.219-.858-2.788c-.429-1.43-.787-3.504-.787-4.505 0-1.573.358-1.859 2.718-2.145 1.43-.143 3.647-.715 4.863-1.287 2.002-.786 2.431-.787 3.79.572 1.931 1.716 6.866 2.646 10.942 1.931 3.433-.572 4.792.786 4.863 4.861 0 2.646.072 2.718 2.861 2.718h2.86l2.932 6.22c3.719 8.079 3.934 9.08 2.432 11.44-1.216 1.787-1.216 1.93.143 3.003.858.643 2.002 1.43 2.718 1.859.715.429 1.144 1.358 1.001 2.288l-.286 1.501-2.861-1.716z"/><path d="M81.46 355.43c-3.147-6.149-8.654-20.878-8.225-22.094.644-1.859 9.512-16.802 10.799-18.304.572-.643 2.074-1.215 3.29-1.215 3.003 0 4.791-1.359 7.509-5.649 2.217-3.432 4.863-5.076 7.938-5.076 1.716 0 4.148 6.506 4.72 12.655l.501 5.22h-1.788c-2.646 0-3.648 1.644-3.219 5.148.215 1.716.573 3.718.859 4.504.286 1.001-.501 2.36-2.861 5.005-8.725 9.438-9.511 10.582-10.298 14.944-.43 2.359-.787 4.361-.787 4.504 0 .572-4.72 3.075-5.792 3.075-.644 0-1.86-1.216-2.647-2.717zm43.981-44.33c-.5-.787-1.287-5.863-1.001-5.863.215 0 1.502.5 3.004 1.072 3.361 1.43 4.934.93 4.505-1.43-.214-1.001-.071-1.787.286-1.787.501 0 3.147 1.43 4.792 2.645.143.072-.286 1.502-1.002 3.075l-1.287 2.86h-4.505c-2.432 0-4.649-.286-4.792-.572zm88.965 89.661c-4.434-1.43-4.863-1.788-8.439-6.864-3.075-4.362-4.505-5.72-7.866-7.436-3.934-2.002-4.363-2.074-10.942-1.573-4.792.357-7.438.858-9.154 1.859-1.359.786-2.646 1.287-2.789 1.144-.215-.215-.787-3.432-1.288-7.293-.786-5.291-1.358-7.293-2.574-8.652-1.788-1.859-2.861-2.073-5.006-.786-1.287.786-1.716.643-3.647-1.859-1.216-1.502-3.004-3.003-3.934-3.361-1.287-.5-1.645-1.144-1.645-3.003 0-3.146-1.072-4.075-4.791-4.075-3.004 0-3.075-.072-3.075-2.36 0-1.716-.572-2.788-2.289-4.218-2.288-1.859-2.36-1.931-.929-3.432.715-.858 3.289-2.717 5.721-4.076 5.936-3.575 6.794-4.433 6.794-6.721 0-1.501 1.001-2.86 4.505-5.934 2.503-2.145 5.364-4.29 6.294-4.648 1.144-.429 4.505-.429 8.51-.143 6.508.572 6.794.644 9.082 3.146l2.36 2.574-2.145 5.792c-1.144 3.217-2.146 6.22-2.146 6.649 0 1.216 10.871 12.656 12.015 12.656.501 0 1.216.786 1.573 1.716.429 1.215 2.432 2.645 6.222 4.576 3.647 1.859 6.365 3.789 7.867 5.648l2.288 2.86 3.647-.715c4.077-.786 5.007-.286 5.007 2.86 0 1.931 2.431 2.717 6.364 2.074 2.575-.429 2.861-.286 3.648 1.787.5 1.144 1.716 2.646 2.646 3.289 1.645 1.073 2.074 3.218 1.215 5.506-.214.572-2.36 1.93-4.648 3.003-4.362 1.93-5.149 3.36-3.004 4.933 1.002.715 1.145 1.287.501 2.932-.644 1.859-.93 2.002-3.719 1.859-1.859-.143-3.576.143-4.577.858-1.931 1.358-1.931 1.358-7.652-.572zm721.946 160.302c-4.005-3.646-11.157-10.153-15.877-14.514-16.162-14.872-15.59-14.515-20.382-15.015-3.504-.429-4.648-.286-6.222.715-1.573 1.072-2.86 1.144-8.51.715-7.223-.501-8.868 0-15.876 4.79-3.719 2.574-5.006 2.36-9.44-1.573l-3.218-2.788 1.287-2.145c1.716-2.86 1.573-3.861-.787-5.649-1.502-1.072-2.36-2.717-3.289-6.006-2.289-8.294-2.646-9.152-3.934-9.152-.715 0-2.002.787-2.932 1.788-.93.929-1.859 1.787-2.145 1.787-.215 0-1.431-1.501-2.718-3.217-1.216-1.788-2.646-3.218-3.147-3.218-.429 0-1.716.858-2.86 1.859-2.503 2.431-4.22 1.43-3.647-2.145.357-2.145.143-2.431-3.29-4.29-2.003-1.072-3.647-2.359-3.647-2.788 0-.501 1.644-2.002 3.647-3.361 3.433-2.288 3.79-2.359 6.579-1.716 4.649 1.216 13.803.572 19.166-1.287l4.792-1.573 3.504 2.288c4.291 2.717 5.292 2.789 10.656.429 3.29-1.501 4.934-1.787 7.509-1.501 3.147.357 3.719.143 9.297-3.575 3.647-2.431 8.01-4.648 10.942-5.506 3.146-1.001 5.22-2.073 5.721-2.931 2.789-5.148 4.291-6.793 6.651-7.222 1.502-.286 4.863-2.431 8.51-5.291 7.938-6.292 9.154-6.864 11.586-6.006 2.789.93 2.932 4.433.286 11.083-1.931 4.933-4.434 16.588-4.434 20.878 0 2.288.429 2.288 6.293.5 2.503-.786 4.935-1.43 5.435-1.43.501 0 1.645 1.287 2.503 2.86.858 1.573 1.931 2.86 2.36 2.86.429 0 3.79-2.288 7.509-5.005 6.151-4.719 6.651-5.219 6.651-7.507 0-2.217.215-2.503 1.717-2.503 1.215 0 2.789-1.144 5.006-3.718l3.218-3.646 2.217 4.933c1.287 2.717 2.717 5.935 3.289 7.15l.93 2.288-5.649 2.288c-3.147 1.216-5.722 2.646-5.722 3.075 0 .429 1.001 1.787 2.217 3.074l2.217 2.288-1.788 1.573c-1.144 1.001-2.002 2.717-2.288 4.505-.286 1.644-1.502 4.933-2.646 7.364-2.003 4.219-2.146 4.862-1.86 12.155.215 7.079.429 8.08 2.217 10.797 1.86 2.931 2.074 3.074 5.722 3.074 3.575 0 3.933.143 7.509 3.79 2.074 2.073 3.718 4.218 3.718 4.719 0 .572-.643 3.503-1.501 6.578-1.145 4.218-1.86 5.72-2.933 6.006-.786.286-4.433.071-8.009-.429-6.15-.787-6.723-.787-10.084.643-3.289 1.43-12.873 4.433-14.16 4.433-.286 0-3.79-3.003-7.866-6.578zm55.209 13.871c-.643-.286-2.86-2.574-5.006-5.076-6.865-8.08-6.436-7.15-5.363-11.798.572-2.216 1.072-4.218 1.215-4.29 1.145-.929 14.947-8.294 15.591-8.294.429 0 1.931.501 3.292 1.216 2.5 1.144 2.86 1.144 9.01-.429 3.5-.93 6.58-1.573 6.79-1.359.15.215-1.64 3.289-4 6.936-2.36 3.575-5.22 8.365-6.37 10.582-2.36 4.719-9.581 12.083-12.227 12.655-1.001.143-2.288.143-2.932-.143zM1120.5 332.335c-26.17-13.227-34.47-18.018-34.47-19.948 0-.215 2.43-3.075 5.44-6.292l5.5-5.935-.93-4.29c-.5-2.288-1.28-4.79-1.78-5.434-.79-1.072-1.08-1.072-3.65-.071-2.65 1.072-3 1.072-4.79-.072-1.07-.643-1.93-1.358-1.93-1.644 0-.286 2.43-2.646 5.36-5.291 5.51-4.934 6.08-6.078 4.36-8.58-2.79-4.004-8.29-14.872-7.72-15.23 6.87-4.647 10.23-7.793 11.3-10.582.64-1.716 1.36-3.074 1.5-3.074.14 0 1.86.786 3.79 1.787 2.65 1.287 4.65 1.788 7.87 1.788 5 0 6.01 1.072 4.07 4.433-1.57 2.717-1.5 3.646.29 9.152 1.79 5.362 2.86 6.792 5.51 7.436 8.65 2.073 9.29 2.431 9.79 5.434.43 2.502.22 3.146-1.71 5.362-1.93 2.217-2.22 3.075-2.22 6.65 0 2.216.22 4.719.43 5.505.21.787 2.93 3.075 6.08 5.148 6.29 4.219 6.01 3.504 5.72 13.156l-.21 6.221 2.78 3.074c5.73 6.221 8.73 11.583 10.23 18.09 1.72 7.436 1.79 8.294.29 8.294-.57 0-14.52-6.793-30.9-15.087z"/><path d="M1080.24 306.452c-3.79-4.219-4.08-4.862-5.51-11.226-1.5-6.435-1.71-6.935-4.86-9.724l-3.29-2.931 1.22-5.148c1.5-6.149 2.07-3.933-7.66-31.532l-7.22-20.377-.5-9.152c-.64-10.654-.93-11.369-7.65-16.159-2.58-1.788-5.44-3.933-6.44-4.719l-1.64-1.43 1.79-3.432c2.57-4.791 2-6.221-2.51-6.221h-3.5l-3.29 6.078c-2.36 4.361-3.22 6.578-2.93 7.722.28.858 2.57 3.289 5.07 5.362 2.86 2.288 4.65 4.362 4.65 5.148 0 .787-.21 1.43-.5 1.43-.28 0-2.79-2.216-5.58-4.933-5.43-5.291-8.29-6.793-10.94-5.577-2 .858-2.36.5-4.43-4.719-1.43-3.79-1.79-4.076-3.86-4.076-3.01-.071-3.44-.429-6.15-5.219-2.01-3.647-2.58-4.147-5.082-4.576-2.432-.358-2.789-.644-2.789-2.36 0-2.359 2.288-5.505 8.081-11.011 2.43-2.359 5.44-5.934 6.58-7.865 1.79-3.003 2.5-3.646 4.5-3.861 1.79-.143 2.72-.715 3.58-2.288 1-1.716 2.07-2.216 6.01-3.146 7.15-1.644 7.08-1.644 10.15 3.933 1.5 2.788 3.15 5.219 3.72 5.434.57.214 2.58-.93 4.44-2.503 3.29-2.717 3.79-2.931 8.72-3.074l5.22-.215 1.29-4.647c.71-2.574 1.36-5.649 1.36-6.864 0-1.216.78-4.219 1.79-6.721 1-2.503 1.78-5.649 1.78-6.936v-2.359h4.15c2.22 0 4.43.214 4.86.5.43.286 2.94 8.08 5.58 17.375 3.15 11.154 5.44 17.946 6.87 20.234 1.21 1.859 2.14 3.718 2.14 4.004 0 .286-2.86 1.43-6.36 2.431-3.51 1.001-6.65 2.288-7.01 2.717-.43.501-1.07 4.505-1.5 8.938-.65 6.721-.65 8.365.21 10.51 1.65 3.933 1.36 4.219-2.21 2.288-6.3-3.503-7.01-2.288-3.51 5.935 1.36 3.217 2.5 6.22 2.5 6.578 0 .357-1.28 2.288-2.86 4.29-1.57 2.002-2.86 3.861-2.86 4.147 0 1.644 17.45 28.385 19.1 29.243.71.358 2.93.429 4.86.215l3.58-.429-.15-2.646c-.14-2.145.15-2.788 1.29-3.146 1.5-.429 3.15.572 4.29 2.646.43.858.22 2.359-.79 5.076-1.21 3.218-2.21 4.29-6.79 7.651-2.93 2.145-5.36 4.29-5.36 4.79 0 .429 2.14 4.648 4.72 9.295l4.72 8.437-2.01 1.716c-5.5 4.719-9.58 8.652-9.58 9.367 0 .429 1.29 1.573 2.93 2.645 2.86 1.931 2.86 1.931 5.44.715 3-1.43 3.29-1.215 4.58 4.004l.78 3.432-5.22 5.506c-2.86 3.074-5.36 5.648-5.58 5.72-.21.071-2.21-1.859-4.43-4.29zm-50.99 260.403c-.86-2.073-1.07-3.932-.72-6.435.43-3.289.29-3.718-3.21-9.152-2.01-3.146-3.94-6.578-4.37-7.579-.35-1.001-.93-1.787-1.21-1.787-.29 0-3.58.929-7.3 2.145-7.93 2.502-7.93 2.502-11.58.643l-2.862-1.43-7.009 3.933c-3.933 2.216-7.294 4.004-7.509 4.004-.214 0-.429-.501-.429-1.144 0-.644-2.074-3.218-4.649-5.72-4.433-4.362-4.863-4.576-8.152-4.576-3.147 0-3.505-.215-4.863-2.717-1.073-1.931-1.574-4.362-1.788-9.081-.286-6.077-.215-6.721 2.074-11.654 1.287-2.86 2.36-6.006 2.36-7.007 0-.93 1.001-2.789 2.217-4.147 1.788-2.074 2.002-2.789 1.43-3.933-.429-.786-1.359-1.787-2.074-2.145-1.645-1.001-.715-1.787 4.506-3.932 2.36-.93 4.577-2.145 4.863-2.717.643-1.073-6.794-17.732-7.939-17.732-.357 0-2.145 1.716-4.004 3.861-2.79 3.217-3.791 3.932-6.008 4.147-2.646.214-2.646.214-2.431 3.146.286 2.931.214 3.003-5.149 7.007-3.004 2.216-5.722 4.004-6.079 4.004-.358 0-1.359-1.216-2.146-2.646-1.716-2.86-2.431-2.86-9.511-.643-3.147 1.001-3.433.929-3.433-.143 0-3.361 2.36-14.014 4.434-19.663 1.86-5.291 2.146-6.792 1.573-8.937-.572-2.288-1.072-2.789-3.647-3.718l-3.075-1.073-5.364 3.79c-2.932 2.002-5.649 3.718-6.007 3.718-.787 0-2.932-7.007-2.932-9.653 0-1.072.358-2.502.715-3.289 1.43-2.645.072-4.862-4.791-7.65l-4.577-2.646.5-2.86c.787-4.719.787-4.862-2.074-6.721-2.288-1.573-2.574-1.93-1.645-2.788.787-.858.93-3.003.644-11.154l-.357-10.082 7.08-3.646 7.008-3.575-.143-4.29-.143-4.362 4.434-1.358 4.434-1.359.357-5.362.358-5.363 2.503-.286c4.935-.429 4.863-.572-3.79-11.726-4.577-5.863-5.507-7.507-6.151-11.011-1.001-5.291-1.072-4.79 1.431-7.722 2.503-2.788 2.431-3.575-.787-8.937-1.073-1.859-2.36-4.505-2.932-6.006-.858-2.288-.787-2.717.286-3.861 1.001-.93 2.288-1.216 5.721-1.001 2.432.071 5.864-.286 7.652-.787 2.718-.858 3.505-1.501 5.006-4.361l1.788-3.289h8.368l-.501-3.79-.429-3.718 3.504-2.717c3.504-2.645 3.647-2.717 6.937-1.93 5.149 1.144 8.653 3.289 11.013 6.649l2.146 3.146-2.074 2.86-2.074 2.789 1.788 2.645c2.002 2.932 3.433 3.218 6.007 1.216 1.573-1.216 2.932-1.43 10.584-1.43 7.08 0 8.725.143 8.725 1.001 0 .572-1.573 1.501-3.719 2.216-4.934 1.645-5.649 2.288-5.435 4.862.215 2.002-.071 2.288-2.86 3.289-1.717.644-3.505 1.788-3.934 2.574-.429.787-3.718 4.934-7.294 9.295a713.406 713.406 0 00-7.438 9.081c-.786 1.072-.715 1.859.715 5.219 1.788 4.29 1.717 5.22-1.144 12.584l-1.287 3.289 2.646 4.29 2.717 4.362-2.216 8.866-2.217 8.937 1.144 10.01 1.144 10.082-3.29 15.444c-1.859 8.508-3.146 15.801-2.932 16.159.286.357 1.86.715 3.504.715 2.503 0 4.077-.644 7.796-3.218 2.646-1.787 5.077-3.217 5.435-3.217.429 0 2.074 1.573 3.79 3.575 3.576 4.147 5.793 4.719 5.721 1.43 0-.215-.214-1.073-.429-1.931-.357-1.215-.071-1.787 1.073-2.431 1.931-1.001 2.932-.071 4.148 4.147.572 2.145 1.216 3.075 2.145 3.075 1.431 0 7.938-6.578 7.938-7.937 0-.5-1.001-2.645-2.288-4.79l-2.217-3.933 3.004-2.86c2.862-2.645 3.222-2.788 6.362-2.359 1.86.214 6.37.643 10.01.858 7.08.429 6.73.214 7.44 4.862.15.858 2.43 2.574 6.3 4.719l6.07 3.36 1.22 5.649c1.86 8.937 6.08 17.231 12.8 25.025 3.22 3.718 8.08 10.51 10.8 15.158l5.08 8.294.5 10.01c.28 5.577.21 10.367-.07 10.725-.79.858-2.79-.858-2.79-2.503 0-1.215-7.23-7.078-8.66-7.078-1.14 0-7.79 9.652-7.58 11.011.08.858 1.36 2.145 2.94 3.003 2.21 1.215 3.21 1.43 5 .929 1.22-.357 2.29-.643 2.43-.643.07 0 .15 1.93.15 4.29v4.29h-2.22c-1.14 0-2.79.286-3.58.715-1.36.786-1.36.929.86 4.79l2.29 4.004-2.93 2.717c-2.93 2.717-3.01 2.789-8.66 2.789h-5.72l-2.57 3.932c-2.65 4.219-2.93 5.291-1.72 6.578.86.787.36 2.36-.71 2.36-.36 0-1.15-1.359-1.79-2.932z"/><path d="M970.035 327.044c-.644-1.501-.5-2.145 1.216-4.361l1.931-2.574-2.575-3.861c-2.717-4.076-6.865-6.793-11.871-7.794a420.334 420.334 0 01-3.648-.786c-.643-.215-2.646.786-4.433 2.216-1.86 1.43-3.719 2.36-4.077 2.145-.357-.286-.715-1.573-.715-3.003 0-2.145-.715-3.289-4.935-7.65-6.293-6.507-8.653-11.083-8.653-16.803v-4.218l4.72-2.431c2.646-1.287 4.935-2.789 5.149-3.289.143-.572-1.001-2.36-2.646-4.076l-3.004-3.003 4.148-3.718c3.004-2.645 4.577-3.575 5.579-3.289a60.49 60.49 0 003.361.787l1.931.429-.429-3.647c-.358-3.432-.286-3.789 2.431-7.007 1.573-1.93 3.075-3.861 3.361-4.361.286-.501-1.215-2.646-3.861-5.577l-4.434-4.719.5-3.432c.429-3.361.429-3.432-2.145-5.005-2.074-1.287-2.503-1.931-2.146-3.146 1.288-4.147 1.216-4.505-1.001-6.149-1.216-.858-2.217-1.788-2.217-2.145 0-.286 2.146-1.931 4.72-3.647 2.575-1.716 5.006-3.789 5.364-4.719.429-1.215 1.144-1.644 2.717-1.644 2.575 0 2.575 0 3.862-5.649 1.001-4.147.93-4.504-.357-6.149-1.288-1.716-1.288-1.716.071-2.502 1.001-.501 1.573-.429 2.36.5.501.644 2.145 2.002 3.647 3.075l2.646 2.002 6.508-2.431c4.005-1.502 7.581-3.361 9.226-4.862 2.074-1.859 3.504-2.503 6.579-2.932 2.503-.286 4.863-1.144 6.365-2.216 3.79-2.789 5.29-2.36 8.37 2.574 2.29 3.718 2.93 4.29 4.86 4.29 2.65 0 3.15.572 4.86 5.076.65 1.788 1.58 3.79 2.08 4.505.93 1.215 1.07 1.215 3.29.071 2.14-1.144 2.43-1.072 4.57.286 1.29.787 4.22 3.361 6.58 5.72 2.36 2.36 4.65 4.362 5.08 4.362.64 0 4.58 16.945 4.58 19.591 0 .643-3.36.429-5.51-.358-1.07-.429-3.36-2.359-5.08-4.29-1.71-1.93-3.72-3.503-4.5-3.503-.93 0-3.08 2.574-6.94 8.365-3.07 4.648-5.79 8.938-6.01 9.581-.5 1.216.29 4.147 6.23 23.452 3.86 12.513 6.15 17.446 9.29 20.02 1 .858 1.43.787 3.22-.572 2.29-1.644 3.58-1.93 3.58-.786 0 .429-1.58 2.574-3.44 4.862-3 3.646-3.64 5.076-5.43 11.94-2.43 9.224-2.93 10.368-4.58 10.368-2.5-.072-2.93-.93-2.07-4.147.93-3.361.28-4.433-2.72-4.433-1.86 0-17.521 9.152-18.022 10.582-.286.572.144 2.717.859 4.79.715 2.074 1.072 4.076.786 4.505-.214.429-1.573 1.072-2.932 1.573-1.359.429-2.503 1.072-2.503 1.43 0 .429-3.862.715-8.725.715-7.58 0-9.082.214-10.941 1.43-2.718 1.787-3.076 1.787-4.077-.358z"/><path d="M962.812 192.839c-3.147-2.646-3.576-2.86-5.292-2.074-1.716.787-2.074.572-4.649-1.859l-2.717-2.717-5.721.215-5.793.214-2.789-3.074c-2.718-2.932-2.861-3.361-2.861-7.651 0-4.147.215-4.79 2.503-7.579 1.86-2.216 2.503-3.718 2.503-5.648 0-1.859.644-3.432 2.289-5.434 2.217-2.789 2.217-2.789.858-4.29-2.575-2.86-7.795-6.149-12.444-7.794-2.574-.929-4.934-1.93-5.292-2.288-1.001-.858 1.144-4.933 7.009-13.084 6.15-8.437 6.865-9.724 6.865-12.084 0-1.001.429-2.073.858-2.359.501-.286 4.434-.715 8.725-1.001 4.935-.358 8.081-.858 8.654-1.502 1.215-1.287 1.859-10.296.786-11.583-.5-.715-2.574-1.144-6.15-1.287-4.291-.214-5.793-.572-7.652-2.002-1.287-.93-2.36-2.216-2.36-2.717 0-1.001 7.866-15.373 12.372-22.522 2.217-3.575 10.513-11.297 20.596-19.091 9.941-7.722 34.54-24.31 36.04-24.31.79 0 3.22.643 5.37 1.43 2.14.787 4.57 1.43 5.36 1.358 1.93 0 9.23-5.148 9.58-6.72.36-1.788-.93-2.36-6.86-2.932-5.29-.5-6.37-1.287-4.15-3.146.57-.5 1.72-3.003 2.5-5.649 1.43-4.718 1.43-4.79 7.3-8.58 3.15-2.144 6.29-4.003 6.94-4.146.64-.143 2.28.715 3.64 1.859l2.51 2.073-1.29 4.862c-2.15 8.366-2.5 8.008 10.58 10.296 4.65.787 8.94 1.788 9.44 2.216 2.36 2.002 0 7.079-3.29 7.079-2.5 0-3.43.787-7.22 5.934-2.86 3.933-3.15 4.219-5.44 3.861-2-.357-2.93 0-5.93 2.431-3.72 2.932-4.01 3.433-4.72 8.152-.93 5.72-.5 5.362-7.01 4.861-7.22-.5-7.94 0-7.22 5.434.28 1.931.86 4.076 1.28 4.648.51.715 3.44 1.502 7.87 2.145 3.86.572 7.37 1.287 7.65 1.644.36.358 1.29 3.147 2.08 6.293l1.43 5.648-3.15 4.647c-3.93 5.649-3.57 6.507 2.72 6.507 3.86 0 4.86-.358 8.08-2.502 4.15-2.789 4.58-2.86 10.23-1.716 3.5.714 4.43.643 8.29-.716 5.72-2.001 7.51-1.93 9.87.501l2 2.073-5.36 5.72-5.36 5.721 2.79 11.297c1.57 6.22 2.71 11.726 2.5 12.226-.29.715-1.86 1.001-5.44 1.001h-5v3.218c0 1.859-.79 5.076-1.79 7.507-1 2.288-1.79 5.291-1.79 6.578s-.43 3.933-.93 5.935l-.93 3.575-5 .357c-4.44.286-5.37.644-7.73 2.646-1.43 1.287-3 2.359-3.5 2.359-.43-.071-2.08-2.288-3.58-5.005-3-5.72-3.14-5.72-10.8-3.932-6.22 1.43-6.58 1.573-7.43 3.503-.5 1.216-1.58 1.859-3.51 2.145-2.43.429-3 1.001-5.5 5.148-1.51 2.574-4.51 6.149-6.58 7.937-5.868 5.005-7.442 7.65-7.442 12.512s-1.215 6.006-7.223 6.721c-3.003.358-4.362.93-6.65 3.075-2.503 2.216-11.872 6.435-14.375 6.435-.358 0-2.289-1.359-4.148-3.003zM937.067 44.333c-2.36-2.574-2.646-3.289-2.646-6.792 0-3.361.214-3.933 1.644-4.362.859-.286 2.432-1.073 3.505-1.859 1.001-.715 2.217-1.287 2.646-1.287 1.859 0 .143 16.302-1.788 16.945-.429.143-1.931-1.072-3.361-2.645zm96.263 607.106c-.65-.429-.15-2.002 1.93-5.934 1.57-2.932 2.86-5.72 2.86-6.221 0-.5-2.08-4.218-4.65-8.294-3.22-5.219-5.79-8.294-8.58-10.51-2.15-1.716-3.94-3.647-3.94-4.29 0-1.43 2.15-7.937 3.01-9.009.36-.429 2.79-1.144 5.43-1.645 5.72-.929 8.73-2.002 8.73-3.146 0-.429-.43-2.073-1-3.646-.58-1.573-1.22-6.292-1.51-10.368-.35-5.648-.93-8.508-2.21-11.368-1.79-4.004-2.15-5.792-1.15-5.792.36 0 1.15-.429 1.86-1.001 1.29-.858 1.29-1.072.15-2.717-1.08-1.716-1.08-1.93.71-5.148l1.86-3.289h11.01l3.94-3.503 3.86-3.504-1.93-4.004-1.93-3.932 2.64-.215c2.08-.214 2.72-.572 3.08-2.002.78-2.788.71-9.867-.07-10.367-.36-.286-1.86-.143-3.29.286-2.01.572-3.08.429-4.65-.358-1.15-.572-2.08-1.287-2.08-1.644 0-.286 1.29-2.431 2.94-4.648l2.93-4.075 3.29 2.359c2.36 1.716 3.43 3.003 3.57 4.362.22 1.43.86 2.216 2.58 2.931 1.93.787 2.43 1.43 2.79 3.718.28 1.502 1.14 5.506 1.93 8.866 1.43 5.506 1.57 8.652 1.93 35.75l.36 29.673-4.58 10.01-4.58 9.938-8.79 2.646c-4.79 1.501-9.16 3.003-9.66 3.432-.57.429-1.07 2.931-1.28 5.72-.22 2.717-1.01 6.363-1.72 8.222-1.07 2.646-1.72 3.289-3.15 3.289-1-.071-2.14-.286-2.64-.572z"/><path d="M817.851 495.284c-5.006-3.79-5.507-4.505-7.795-10.654-1.359-3.432-3.934-7.15-13.588-19.233l-1.931-2.431-4.505 1.93-4.506 1.931-4.505-4.362-4.577-4.361-5.221.429c-2.861.286-5.721.643-6.365.858-.572.143-2.932 4.075-5.149 8.651-3.075 6.364-4.219 9.51-4.505 12.87-.358 3.075-.93 4.862-1.86 5.72-1.359 1.216-1.502 1.144-3.361-1.215-1.359-1.645-2.36-2.288-3.147-1.931-2.217.787-12.3 7.794-14.875 10.296l-2.574 2.431-2.217-1.93c-2.718-2.217-2.789-2.789-1.145-19.019.644-6.292.93-11.869.787-12.37-.214-.5-1.43-1.144-2.646-1.43-1.573-.357-3.004-1.644-5.078-4.433-2.574-3.503-2.86-4.29-2.503-6.721.215-1.43.644-3.217.859-3.789.286-.787-.501-1.716-2.861-3.146-2.002-1.216-3.218-2.503-3.29-3.289 0-1.502-2.717-6.507-5.506-10.296-1.216-1.716-2.503-2.431-4.577-2.789-2.646-.429-2.789-.5-1.645-1.716.93-1.072 1.001-1.716.357-3.718-1.501-4.433-2.288-4.719-12.944-5.005l-9.654-.143-.215-3.432c-.143-2.216.286-4.433 1.287-6.649.787-1.859 1.431-4.004 1.431-4.719 0-.787-1.502-3.504-3.29-6.006-2.646-3.718-3.361-5.434-3.862-9.152-.787-5.22-1.287-6.864-2.217-6.864-1.645 0-1.287-2.288.858-5.22l2.289-3.289-2.646-13.442-2.575-13.442-3.647-3.646-3.647-3.718 4.076-4.076c3.862-3.861 4.291-4.075 6.866-3.789 3.79.572 4.576-.715 5.578-8.723.5-3.79 1.072-7.365 1.287-8.08.143-.715 2.431-3.646 4.935-6.435 2.503-2.86 4.576-5.72 4.576-6.363 0-2.002-11.013-17.947-14.303-20.807-2.932-2.502-3.218-3.074-4.648-9.652-.858-3.79-1.43-7.436-1.287-8.008.286-1.144 4.648-4.29 5.935-4.29.358 0 1.359 1.287 2.146 2.86 1.931 3.789 3.576 3.718 5.578-.358 1.931-4.004 3.433-4.933 10.799-6.792 6.007-1.43 7.223-1.43 7.223.286 0 1.501 4.219 4.719 6.15 4.719.93 0 5.507-1.573 10.155-3.504 4.577-1.93 9.083-3.718 9.941-3.932 2.36-.787 2.503-2.288.572-6.65-2.074-4.576-2.145-5.863-.787-7.793.859-1.144 1.788-1.287 6.437-1.144 5.22.214 5.578.143 8.009-2.002 1.359-1.144 2.79-2.145 3.076-2.145.357 0 3.933 2.931 8.009 6.578 5.65 5.148 7.009 6.649 5.936 6.864-1.502.286-3.147 1.43-3.147 2.288 0 .286 2.503 2.359 5.507 4.647 4.863 3.647 6.794 4.576 15.161 7.293 12.801 4.076 12.873 4.004 9.154-7.15-1.43-4.433-2.646-8.651-2.646-9.295 0-1.001.93-1.144 6.651-1.001l6.58.143 1.43-4.147c.786-2.216 1.859-4.218 2.431-4.433.572-.214 3.004-.643 5.364-.858 5.65-.572 7.008-1.287 6.508-3.289-.358-1.215.357-2.288 2.86-4.719 1.788-1.716 3.219-3.36 3.219-3.718 0-.357-2.217-2.359-5.006-4.361-5.15-3.718-5.436-4.147-5.936-10.082-.358-4.004-.072-4.433 5.792-7.722 12.873-7.293 21.241-12.512 25.531-16.087 4.363-3.575 5.149-3.933 7.796-3.718 3.146.214 3.075.071 2.074 4.933-.215 1.144 0 2.002.643 2.217 1.001.357 24.029-4.505 25.46-5.434.5-.286 3.575-5.935 6.937-12.513l6.078-12.012 5.722-3.003c5.649-2.931 5.792-2.931 9.797-2.216 3.075.572 4.506 1.287 5.721 2.717.859 1.072 1.645 2.216 1.645 2.502 0 .215.644.644 1.43.93 2.146.643 9.87-4.862 11.157-8.008 1.216-2.789 1.073-2.789 8.367.143 4.291 1.716 9.798 5.648 9.798 6.864 0 .429-.644 1.573-1.431 2.574-.786 1.001-1.43 2.788-1.43 3.932 0 2.503-.93 4.362-3.647 7.579-1.86 2.074-2.074 2.789-2.074 7.436 0 4.362.286 5.506 1.43 6.507.787.715 1.574 1.859 1.788 2.574.715 2.288 5.507 3.789 10.584 3.217l4.577-.5 3.934 4.361 4.004 4.433-.858 3.718c-.786 3.432-1.001 3.718-3.289 4.076-1.86.286-2.503.786-2.861 2.073-.286 1.216-2.217 2.932-5.864 5.363-3.075 2.002-5.507 4.075-5.507 4.719-.071.572 1.073 1.787 2.503 2.717 2.074 1.358 2.503 1.93 2.074 3.217-1.359 4.362-1.287 4.648 1.359 6.292 2.503 1.645 2.646 1.788 2.217 4.934-.429 3.217-.358 3.36 3.504 7.507 2.217 2.36 4.005 4.648 4.005 5.077 0 .429-1.287 2.288-2.932 4.147-2.503 2.788-2.861 3.646-2.646 5.863.286 2.502.286 2.502-2.074 2.073-2.217-.429-2.861-.071-7.366 3.933-2.789 2.431-5.006 4.79-5.006 5.291 0 .429 1.144 1.93 2.503 3.289 1.43 1.358 2.431 2.717 2.288 3.074-.071.286-2.074 1.645-4.434 2.86l-4.291 2.288-.214 4.648c-.286 6.578 2.503 12.441 8.725 18.375l4.505 4.362 1.001 5.934c1.431 8.509 1.574 8.151-2.503 8.151-3.504 0-3.576 0-5.22 3.289-2.074 4.147-4.506 5.148-12.301 5.005-5.292-.143-5.507-.071-6.722 1.931-.644 1.215-1.216 2.574-1.216 3.146 0 .572 1.502 3.789 3.29 7.221l3.218 6.221-2.217 2.788-2.289 2.789 1.144 5.362c1.002 5.077 1.502 5.935 6.866 12.727 5.864 7.436 6.15 8.437 2.431 8.509-1.644 0-2.431 2.502-2.431 8.222v2.86l-4.434 1.43-4.505 1.43.214 4.29.215 4.29-7.009 3.718-7.008 3.647.286 10.367c.214 9.939.143 10.368-1.288 11.154-2.288 1.216-1.787 2.646 1.574 4.505 3.146 1.787 3.146 1.859 2.36 6.792l-.501 2.932 4.649 2.717c2.574 1.501 4.863 3.146 5.077 3.718.215.572 0 2.145-.5 3.503-.787 2.074-.644 3.289.715 8.58 1.788 7.007 1.645 7.508-3.075 8.723-2.718.644-3.433 1.287-5.722 4.934-2.431 3.932-2.789 4.29-6.65 5.148-2.647.643-6.151 2.431-10.299 5.219-5.935 4.004-6.508 4.219-9.44 3.718-2.431-.357-3.933-.071-7.223 1.359-5.22 2.359-5.935 2.288-10.369-.429l-3.648-2.288-5.935 1.93c-6.437 2.074-13.231 2.503-18.523 1.073-3.003-.787-3.146-.787-7.652 2.502-2.503 1.859-4.72 3.289-4.935 3.289-.214 0-2.503-1.644-5.077-3.646zm-23.886-305.019c-.715-4.648-.572-5.22 2.145-6.292 2.861-1.216 8.94-1.144 9.369.143.286.786-6.365 6.292-9.583 8.008-1.288.715-1.502.5-1.931-1.859zm-28.249-12.727c-1.788-.572-3.504-1.287-3.861-1.716-.716-.715-2.575-9.152-2.647-12.012 0-1.573.143-1.645 6.294-1.43l6.222.286-.215-2.145c-.071-1.216-.214-3.003-.358-3.933-.071-1.358.215-1.787 1.288-1.787 1.001 0 1.573.715 2.002 2.717.644 2.574 1.073 3.003 5.578 5.005l4.863 2.288-3.575 4.647c-7.581 9.796-8.582 10.296-15.591 8.08zm16.02-17.947c-5.507-3.003-5.221-6.864.572-7.793 2.288-.358 2.503-.215 3.29 1.93.858 2.646 1.072 7.865.286 7.794-.358 0-2.146-.858-4.148-1.931zm11.943-10.296c-1.931-2.002-.787-3.146 6.651-6.864 9.654-4.79 10.012-4.79 9.368-.143-.286 1.931-.643 4.004-.858 4.505-.215.572-2.861 1.501-5.864 2.145-6.58 1.43-8.153 1.501-9.297.357zm310.591 370.656c-1.15-.643-2.72-1.644-3.51-2.288-2.71-2.359-9.65-12.084-12.94-18.161-2.93-5.434-3.72-6.435-6.36-7.579-2.51-1.072-5.44-4.219-15.88-16.946l-12.8-15.515-5.79-2.717c-7.23-3.289-10.66-6.364-15.24-13.514-3.86-6.006-4.36-8.079-2.43-10.152.93-1.073 1.07-1.931.5-4.72-.64-3.432-.93-3.718-6.36-6.077-2.43-1.001-2.79-2.503-.86-3.647 1.07-.715 1.93-.071 5.86 4.004 2.51 2.646 7.15 7.079 10.37 9.867 3.65 3.218 6.15 6.078 6.87 7.723.93 2.431 2.29 3.36 14.09 9.867 22.24 12.369 28.75 16.087 29.39 16.73.43.358-1.22 1.502-4.08 2.789-2.64 1.215-5 2.645-5.22 3.217-.21.572 1.29 4.862 3.29 9.51 2.08 4.647 4.51 10.225 5.51 12.441 2.07 4.719 2.64 5.005 17.52 9.938 9.23 3.003 13.8 5.72 9.44 5.649-1.14 0-3.86-.286-6.01-.644-2.86-.429-4.22-.357-4.86.286-1 .93-1.07.715 2.43 8.795 1.22 2.717.5 3.003-2.93 1.144zM536.224 679.324c-1.931-.214-2.789-.929-4.434-3.575-1.215-1.787-2.288-3.861-2.503-4.504-.572-1.788-2.074-2.145-4.291-1.001-2.002 1.072-7.938 1.287-11.085.429-1.859-.501-11.656-13.514-11.013-14.586.215-.286 1.144-.501 2.074-.501 1.43 0 1.931-.572 2.646-2.931.715-2.503.715-3.075-.214-3.575-3.934-2.288-3.862-2.36 2.431-4.433 5.864-1.931 6.15-2.145 9.011-6.221 3.147-4.504 3.647-4.719 8.081-3.646 3.147.715 3.719.214 4.506-3.861.929-5.363 1.001-5.434 7.437-4.004 3.075.715 5.936 1.501 6.365 1.787 1.144.644.215 2.646-2.145 4.719-2.003 1.645-2.074 2.002-1.86 6.721l.215 5.005 3.146.93c2.718.715 3.433.715 4.72-.143 1.502-.93 1.645-.787 3.791 3.789 1.216 2.646 2.932 6.006 3.79 7.436l1.645 2.717-2.002 2.074-2.074 2.145 2.217 2.502c2.145 2.431 2.36 4.29.643 4.862-.5.215-3.576.93-6.865 1.716-5.292 1.216-6.222 1.645-8.153 4.004-1.216 1.502-2.503 2.646-2.932 2.574-.429-.071-1.86-.214-3.147-.429z"/><path d="M476.724 592.738l-7.366 3.075c-5.293 2.145-9.655 3.432-15.376 4.29l-9.011 2.073c2.145 3.432 3.719 8.151 10.37 26.813 2.86 8.008 5.363 14.443 5.578 14.443.286 0 1.716-1.645 3.218-3.647 3.933-5.291 5.364-4.433 7.938 4.576l1.144 4.076 3.648.071c2.074.072 7.366.072 11.728-.071l7.938-.143 2.289 3.217c1.931 2.646 2.646 3.146 4.076 2.86 1.001-.214 2.074-1.001 2.575-1.787.858-1.645.572-1.859-3.719-4.29-1.931-1.073-2.146-1.502-1.43-2.36.5-.643 1.144-1.072 1.573-1.072.429 0 3.433-.858 6.794-1.859 5.793-1.788 5.936-1.859 9.225-6.435l3.29-4.648 3.862.358c3.719.5 3.79.572 4.219-1.43.286-1.144.93-3.361 1.502-5.005.787-2.145.93-4.433.572-8.938l-.5-6.006-6.866-8.008c-3.79-4.433-7.223-8.079-7.652-8.079-.429 0-1.216.5-1.716 1.072-1.574 1.931-3.219 2.431-10.012 3.218l-6.651.715-3.576 3.932c-2.003 2.217-4.005 3.933-4.434 3.861-.429-.143-3.719-3.503-7.009-7.507l-6.221-7.365zm222.054 56.128l-6.436-1.574-2.217-6.291c-1.287-3.433-2.432-6.364-2.575-6.579-.572-.5-30.036-6.863-32.611-7.006-3.361-.215-4.648-2.146-4.219-6.15.286-2.216.858-3.574 2.074-4.432 1.931-1.502 1.788-1.359 5.292-5.435 3.218-3.718 5.435-3.861 6.007-.5.358 1.93 1.216 2.574 9.297 6.578 6.151 3.003 9.798 4.433 11.729 4.433 2.002 0 4.076.858 6.937 2.717 3.719 2.359 4.148 2.931 4.005 4.862-.143 1.93.071 2.145 2.36 2.36 1.644.143 3.003.786 4.076 2.073l1.573 1.93 3.29-1.644c4.148-2.073 5.364-3.36 5.364-5.577 0-1.215 1.502-3.503 4.577-6.935 2.503-2.789 4.934-6.293 5.363-7.651.715-2.145 6.222-9.009 15.162-18.733.786-.858 1.501-3.647 2.002-7.865 1.645-14.3 1.716-16.016.572-17.803-.572-.93-2.002-4.505-3.075-7.937-2.003-6.221-2.003-6.292-.858-10.582 1.287-4.791 1.573-4.147-3.505-8.294-2.431-1.93-1.43-4.218 2.718-6.363 2.503-1.287 3.504-2.217 3.862-3.79.429-1.93.643-2.073 5.578-2.502 5.292-.429 6.937-1.43 6.937-4.147 0-1.502.715-1.574 4.505-.573 2.289.644 3.004.572 4.005-.357 1.717-1.502 2.575-1.359 3.505.715.929 2.002 1.001 2.002 7.008 1.001 3.647-.643 5.149-1.358 7.724-3.646 2.646-2.288 3.289-3.361 3.718-6.15.358-2.574 1.073-3.932 3.076-5.72 3.79-3.503 5.864-3.003 2.932.715-2.074 2.717-1.788 5.577 1.287 11.44 4.792 9.224 7.724 13.228 9.941 13.729 1.072.214 3.718 1.429 5.792 2.573 3.505 2.002 3.719 2.36 3.719 4.934 0 2.359-.286 2.86-2.145 3.646-2.503 1.001-6.651 5.721-12.229 13.872-2.146 3.074-4.22 6.149-4.72 6.792-1.502 2.002.5 7.365 3.218 8.58 4.005 1.788 3.647 4.505-1.574 10.725-2.145 2.646-4.791 4.719-8.081 6.435-4.505 2.36-4.863 2.789-5.435 5.506-.429 2.216-1.287 3.503-3.361 5.219-1.573 1.215-3.504 3.575-4.291 5.076-1.359 2.646-1.645 2.86-4.506 2.86-2.288 0-3.79.501-6.078 2.145-1.931 1.502-3.433 2.074-4.363 1.788-1.859-.572-6.508 1.716-6.508 3.289 0 .715.358 2.074.787 3.003.715 1.502.572 2.145-.715 3.933-2.217 3.146-1.931 4.862 1.073 6.435l2.574 1.287-2.503 1.715c-1.859 1.287-2.646 2.36-2.932 4.433-.501 3.146-.93 3.218-8.51 1.502-3.862-.858-6.866-1.001-12.158-.715l-7.08.5-5.578 3.933c-3.29 2.288-6.293 3.861-7.223 3.861-.93-.072-4.577-.786-8.153-1.644z"/><path d="M752.128 647.507c-2.503-2.002-2.86-2.645-2.717-4.79.143-2.002.715-2.86 3.146-4.648 1.645-1.215 3.004-2.574 3.004-3.146.072-.5-1.216-1.43-2.789-2.145-3.29-1.358-3.433-2.002-1.359-4.719 1.359-1.716 1.502-2.216.787-4.576-.715-2.216-.644-2.717.429-3.503.715-.572 2.074-.787 3.29-.572 1.573.286 2.646-.072 4.863-1.788 1.931-1.573 3.862-2.359 6.508-2.717 3.289-.429 3.861-.715 4.791-2.788.644-1.287 2.575-3.718 4.434-5.506 2.217-2.145 3.433-3.932 3.719-5.72.429-2.288.93-2.788 4.934-4.576 3.648-1.716 5.149-3.003 8.582-7.293 3.862-4.862 4.148-5.505 3.934-8.508-.215-2.86-.501-3.361-2.503-4.29-3.29-1.359-4.506-5.22-2.504-7.436.787-.858 2.647-3.432 4.22-5.792 4.434-7.007 9.011-12.369 10.942-12.87 2.86-.786 3.576-1.787 3.576-5.148 0-2.431-.43-3.503-1.717-4.79-2.074-1.859-7.652-4.719-9.297-4.719-1.788 0-10.799-14.801-11.299-18.59-.215-1.573.143-1.788 4.505-2.574 8.439-1.573 11.085-3.79 10.298-8.723-.929-5.72-1.001-5.792-3.575-6.292-3.29-.644-4.649-3.146-4.649-8.795 0-5.005.143-5.076 7.009-5.076h4.791l1.43 3.646c1.216 3.146 2.36 4.505 7.152 8.223 3.147 2.502 7.581 5.505 9.798 6.792 3.861 2.074 4.076 2.36 3.933 4.719-.143 2.145.214 2.646 2.503 4.004l2.646 1.502 1.716-1.573c.93-.858 1.86-1.573 2.146-1.573.214 0 1.43 1.43 2.717 3.217 1.288 1.716 2.718 3.218 3.147 3.218.501 0 1.716-.715 2.789-1.502 1.073-.858 2.074-1.43 2.217-1.287.072.143.858 2.574 1.716 5.363.859 2.931 2.289 5.863 3.29 6.864l1.788 1.787-1.502 1.859c-.787 1.073-1.359 2.36-1.216 2.86.143.572 2.289 2.646 4.792 4.719l4.505 3.79-4.004 4.004c-2.933 3.003-4.434 5.291-5.722 8.866-2.074 5.362-1.931 6.649.859 7.293 1.072.286 3.361 2.073 5.077 4.004l3.147 3.575-1.931 4.29c-1.86 4.147-1.931 4.647-1.717 14.943.215 10.082.287 10.725 1.931 12.513 2.003 2.073 1.431 3.217-2.145 4.719-1.573.643-2.646 1.93-3.862 4.719-1.073 2.431-2.288 4.075-3.361 4.433-3.647 1.43-8.081 1.573-11.657.5-5.435-1.644-6.365-1.43-8.582 1.788-2.217 3.217-2.574 3.289-8.01 1.716-4.72-1.359-10.512-1.073-12.229.715-.643.643-2.789 3.932-4.791 7.364-3.433 5.935-4.005 6.507-12.587 12.799l-8.939 6.649-11.943 1.43c-16.163 2.002-16.878 2.002-20.454-.858zm58.571-28.743c5.078-1.716 7.867-3.36 12.873-7.507l2.503-2.074-1.859-2.002c-1.574-1.787-1.717-2.431-1.288-5.219.286-1.788.286-3.432 0-3.718-.214-.215-2.574-.93-5.149-1.502-4.362-1.001-4.863-.929-7.294.286-1.717.858-2.646 1.859-2.646 2.789 0 .786-.858 1.787-2.146 2.502-2.288 1.144-3.575 3.003-3.575 5.22 0 2.502-3.362 4.504-6.723 4.075-2.717-.357-3.075-.214-5.221 2.574-1.287 1.573-2.36 3.361-2.36 3.79 0 .786 5.936 1.716 16.234 2.431.787.071 3.862-.644 6.651-1.645z"/><path d="M796.396 618.192c-3.361-.357-6.15-.786-6.293-.929-.143-.072.644-1.287 1.716-2.646 1.86-2.359 2.074-2.431 4.148-1.573 1.931.787 2.432.715 4.863-.929 2.003-1.359 2.718-2.288 2.718-3.718 0-2.145 1.001-3.575 3.79-5.291 1.073-.644 1.931-1.788 1.931-2.503 0-1.43 2.718-2.931 5.221-2.931.858 0 2.789.357 4.362.786l2.718.715-.358 3.361c-.286 2.788-.143 3.646 1.144 5.005 1.002 1.001 1.288 1.787.787 2.145-.429.286-2.145 1.644-3.933 3.074-3.147 2.574-12.658 6.435-15.305 6.221-.786 0-4.147-.358-7.509-.787zm-92.397 13.871c-.286-.93-1.288-1.502-3.218-1.859-2.503-.429-2.789-.715-2.575-2.074.501-2.359-8.582-8.294-12.587-8.294-2.074 0-5.292-1.215-11.084-4.075-7.367-3.575-8.296-4.29-8.725-6.221-.93-4.504-4.434-4.576-8.725-.143-3.075 3.146-3.147 3.218-4.863 2.074-1.43-.93-2.146-1.001-3.576-.358-1.645.787-2.575.429-9.082-3.217-6.222-3.432-7.867-4.076-11.085-4.147-3.648 0-3.934-.215-6.937-3.575-1.717-2.002-3.147-3.79-3.218-4.076 0-.214 1.644-1.501 3.575-2.717 2.003-1.287 3.576-2.359 3.648-2.431 0-.071.572-3.503 1.287-7.579 1.144-6.578 1.144-7.865.358-10.296-1.145-3.146-1.502-2.431 5.006-10.081l2.789-3.289-2.289-5.863c-1.216-3.289-2.217-6.364-2.217-6.864 0-.429.93-2.717 2.146-5.077l2.145-4.218 4.076-.429c6.437-.715 7.009-.93 8.082-2.86.572-1.001 1.215-1.788 1.502-1.645.286.072 1.859 1.931 3.504 4.004 2.574 3.289 3.218 3.718 5.22 3.575 2.289-.214 2.289-.286 2.36-4.218 0-3.718.358-4.505 5.507-12.37l5.507-8.294-1.073-2.645c-1.502-3.504-1.43-3.718 1.43-4.219 2.074-.357 3.147 0 6.937 2.36 4.434 2.788 9.369 4.504 11.157 3.932.429-.143.858-1.144.858-2.216 0-1.001.643-3.289 1.43-5.005 1.931-4.29 1.859-4.791-1.43-6.936-3.147-2.073-3.29-2.645-1.788-5.291.572-1.001 1.073-3.503 1.073-5.505 0-3.575-.072-3.718-2.36-4.505-1.359-.429-3.29-1.716-4.363-2.788-1.788-1.931-1.931-2.288-1.216-4.862.43-1.502.787-3.861.787-5.148 0-1.859.787-3.361 3.147-6.078 3.003-3.575 3.146-4.004 4.434-11.797l1.287-8.08-2.718-2.288-2.717-2.216.572-7.651.501-7.65 4.863-3.289c4.362-2.86 4.934-3.075 5.578-2.002.572 1.001.214 1.787-1.574 3.575-2.717 2.86-2.217 3.503 3.362 4.218l4.219.644 2.718 4.433c1.501 2.431 2.789 5.362 2.932 6.435.143 1.358 1.144 2.574 3.218 3.932 2.717 1.859 2.932 2.217 2.36 3.861-.429 1.001-.715 2.431-.715 3.146 0 2.002 6.436 11.44 7.795 11.44 3.075 0 3.147.429 1.859 15.73l-1.287 14.515 2.789 2.359c4.22 3.647 5.006 3.647 8.439.429 2.789-2.645 12.73-9.438 13.874-9.438.286 0 1.43 1.073 2.503 2.503 1.073 1.358 2.288 2.502 2.646 2.502.358 0 1.788-1.501 3.218-3.36 2.074-2.717 2.503-3.933 2.503-6.721 0-2.646.858-5.291 3.862-11.583 3.79-8.08 3.862-8.151 6.579-8.652 6.58-1.072 7.51-.786 12.086 3.861 2.36 2.36 4.577 4.29 5.007 4.219.357 0 2.002-.644 3.575-1.359 1.574-.786 3.433-1.43 4.077-1.43 1.215 0 12.086 13.299 12.586 15.373.143.643-1.215 1.072-5.22 1.43-6.294.572-6.794 1.072-6.794 7.078 0 5.363 2.002 9.438 5.006 10.082 2.503.5 3.79 2.86 3.433 6.363-.287 2.646-3.004 4.362-8.01 5.077l-3.504.5 1.215-1.644c1.574-2.288 1.502-2.574-.929-3.861-2.003-1.001-2.146-1.001-5.722 1.859-3.075 2.574-3.647 3.432-4.076 6.149a10.624 10.624 0 01-2.646 5.648c-2.718 3.146-3.576 3.575-8.439 4.219-4.005.5-4.005.5-4.791-1.716-.93-2.646-1.717-2.789-4.506-.715-2.002 1.358-2.288 1.43-5.22.429-3.576-1.287-4.434-.93-5.149 2.002-.644 2.788-1.359 3.146-6.151 3.217-5.149 0-6.293.429-6.293 2.503 0 2.002-.715 2.717-4.649 4.862-2.145 1.215-2.932 2.145-3.289 4.004-.572 2.931-.215 4.147 1.43 4.647.715.215 1.931 1.073 2.718 1.788 1.43 1.358 1.501 1.573.429 5.648-1.073 4.29-1.073 4.362 1.216 11.297 1.287 3.933 2.574 7.365 2.932 7.722.858.93.786 7.508-.072 13.228-.429 2.574-.93 5.72-1.144 6.935-.215 1.573-2.575 4.791-7.795 10.725-4.577 5.148-7.795 9.51-8.296 11.083-.429 1.43-3.004 5.076-5.721 8.079-3.576 4.004-4.935 6.006-4.935 7.436 0 1.573-.572 2.288-2.646 3.361-1.502.786-2.932 1.501-3.147 1.573-.286.143-.643-.358-.786-1.144zm9.797-19.806c2.503-3.003 6.151-12.298 5.65-14.228-.071-.429-.358-1.645-.572-2.789l-.501-2.002-6.365.215c-5.935.214-6.436.143-8.367-1.573-4.219-3.79-4.076-3.79-7.938-1.43-4.005 2.502-4.577 2.574-8.51 1.215-2.217-.786-3.004-.858-4.005-.143-1.645 1.216-1.573 1.645 1.216 7.794l2.431 5.291 4.434.429c2.503.286 6.007.5 7.867.5 3.361 0 3.361 0 6.794 5.005 1.931 2.717 3.861 5.005 4.291 5.005.5 0 2.145-1.501 3.575-3.289z"/><path d="M709.005 612.115c-.572-.644-2.074-2.789-3.361-4.648l-2.289-3.36-6.579-.072c-3.647 0-7.152-.286-7.867-.572-.787-.286-2.288-2.717-3.433-5.362-2.36-5.577-1.859-6.364 3.004-4.433 2.932 1.144 2.932 1.144 6.794-1.073l3.933-2.216 3.576 3.003c3.218 2.645 3.79 2.931 5.221 2.145.858-.429 3.361-.715 5.506-.572 3.791.214 3.862.214 4.077 2.574.357 3.146-2.146 10.153-4.649 13.299-2.288 2.931-2.503 3.003-3.933 1.287zm-164.342 31.817c-1.43-.715-1.788-1.501-2.002-4.218-.215-2.932 0-3.504 1.716-4.648 3.576-2.431 11.013-10.153 11.013-11.44 0-.715-.5-3.218-1.072-5.577-1.431-6.006-1.359-7.436.786-10.225 1.86-2.359 1.86-2.502.787-5.219-.858-2.217-.93-3.289-.286-5.291.93-3.146.5-3.647-2.432-2.574-1.287.429-2.431.643-2.574.5-.143-.143.357-1.716 1.001-3.503 1.216-3.289 1.216-3.361-.429-6.221-1.502-2.717-1.645-5.076-.286-5.005.357 0 1.502 1.502 2.574 3.218 2.36 3.646 3.29 3.861 11.228 2.145 2.575-.572 4.935-.715 5.221-.429.357.357.93 2.002 1.287 3.718.358 1.716 2.789 7.221 5.292 12.155 2.575 5.005 4.649 9.438 4.649 10.01 0 .501-1.073 2.073-2.36 3.432-1.359 1.43-2.789 3.932-3.29 5.577-.644 2.502-1.931 3.932-6.865 8.079-4.077 3.361-6.222 5.721-6.508 7.008-1.001 4.719-1.288 5.004-6.508 5.505-6.437.572-7.438.93-7.223 2.36.286 1.501-1.43 1.787-3.719.643z"/><path d="M547.524 628.059c0-1.072-1.574-1.573-9.369-3.289-3.862-.786-4.076-1.001-4.505-3.432-.215-1.43-.429-4.433-.429-6.721 0-4.004-.072-4.218-4.434-9.295-2.503-2.86-6.151-7.15-8.225-9.509l-3.718-4.362-1.073-8.866c-.572-4.933-1.287-10.367-1.573-12.155l-.43-3.289 5.364-1.144c2.932-.643 7.08-2.216 9.154-3.432 3.218-1.93 4.72-2.288 11.943-2.86 4.506-.429 8.224-.643 8.367-.5 3.648 4.576 6.794 9.795 6.794 11.297 0 1.144-.929 2.788-2.646 4.433-1.502 1.43-3.289 3.789-4.076 5.148-1.359 2.502-1.359 2.502.357 5.72l1.645 3.146-1.573 3.861c-.858 2.073-1.573 4.218-1.573 4.79 0 .93.214.93 4.577-.5 1.144-.286 1.287-.143.929 1.215-.214.93.143 2.717.715 4.004 1.145 2.36 1.145 2.503-.858 5.363-2.002 2.86-2.002 3.074-1.144 7.007 1.931 8.866 1.931 9.295-.644 11.94-2.646 2.717-3.575 3.075-3.575 1.43zm53.708-437.795c0-.643.572-5.219 1.287-10.01 1.001-6.721 1.645-9.009 2.646-9.724 2.002-1.501 2.932-1.287 4.005.858.858 1.573 1.43 1.859 3.504 1.788 2.503-.143 2.575-.072 4.72 4.79 1.645 3.575 2.002 5.077 1.43 5.577-.858.644-16.734 8.008-17.306 8.008-.215 0-.358-.572-.286-1.287zM588.43 177.18c-3.218-.715-6.15-1.502-6.508-1.645-.286-.214-1.144-2.216-1.859-4.361-.93-3.146-1.073-4.862-.644-7.722.644-3.432.787-3.718 3.433-4.576 4.434-1.43 10.227-1.287 12.444.357 1.859 1.359 1.931 1.645 2.145 9.581.143 6.936 0 8.151-1.001 8.938-.715.5-1.43.858-1.645.858-.214-.072-3.075-.644-6.365-1.43zm-13.588-23.095c-1.93-2.145-2.074-2.788-1.573-4.79a433.484 433.484 0 001.43-5.363c.787-3.146 3.791-7.364 5.221-7.364 1.43 0 6.15 8.008 6.651 11.225.787 5.077.071 6.364-4.291 7.651-5.078 1.502-4.935 1.501-7.438-1.359z"/><path d="M656.37 338.127c2.145.572 4.076 1.93 6.365 4.29l3.289 3.432 2.217 11.797c1.288 6.435 2.289 12.155 2.289 12.656 0 .429-1.145 2.216-2.503 3.861-3.004 3.718-3.075 4.719-.429 6.649 1.716 1.287 2.074 2.145 2.503 6.006.357 3.718 1.001 5.363 3.647 9.367 1.788 2.645 3.218 5.291 3.218 5.934 0 .644-.644 2.431-1.502 4.076-1.287 2.502-1.43 3.789-1.072 7.579.214 2.574.572 4.79.858 5.076.5.501 1.859.572 11.585.644l6.937.143-4.219 2.788c-2.36 1.573-4.506 3.289-4.792 3.79-.286.5-.643 4.576-.715 9.08l-.143 8.08 2.36 2.002c2.217 1.787 2.36 2.145 1.931 5.076-1.931 12.942-1.716 12.084-4.863 15.373-2.718 2.788-3.147 3.575-3.576 7.579-.286 2.502-.786 5.148-1.001 6.006-.572 1.93 3.147 6.363 6.579 7.793 2.933 1.216 3.076 3.075.572 7.794-1.001 1.859-1.787 3.646-1.787 3.932 0 .358 1.501 1.502 3.289 2.574 2.289 1.359 3.147 2.217 2.932 3.075-.214.643-.786 2.288-1.287 3.718-.429 1.358-.93 2.86-1.073 3.36-.286 1.073-2.073 1.073-4.505.143-.93-.429-3.576-1.859-5.864-3.217-3.433-2.074-4.577-2.431-6.58-2.074-2.002.358-4.362.858-4.863 1.502-.5.643-.5 1.287 0 2.288 2.432 4.433 2.432 4.504-3.218 13.013-4.72 7.221-5.292 8.508-5.292 11.583 0 4.647-1.216 4.433-5.364-.858-1.788-2.36-3.575-4.29-3.933-4.29-.286 0-1.502 1.144-2.646 2.574-2.002 2.431-2.432 2.645-7.08 3.074l-4.935.429-2.646 5.005c-1.501 2.717-2.646 5.506-2.717 6.078 0 .572 1.001 3.646 2.145 6.721 2.432 6.292 2.718 5.505-3.075 12.155l-3.504 3.932 1.073 3.218c1.001 2.931 1.001 3.932 0 10.01l-1.145 6.721-3.79 2.645c-2.145 1.502-3.862 3.146-3.862 3.718 0 .572 1.86 3.075 4.148 5.577 2.217 2.574 4.076 4.862 4.076 5.077 0 .286-3.504 1.501-7.866 2.788l-7.867 2.288-.643 3.003c-.43 1.931-1.288 3.432-2.361 4.147-.929.572-2.932 3.218-4.433 5.863-4.72 8.008-7.295 9.867-16.52 11.798-.573.143-3.576-.143-6.58-.572-4.577-.644-5.936-1.144-7.509-2.789l-2.002-2.002 4.076-3.718c2.861-2.574 4.291-4.576 4.792-6.435.357-1.43 1.859-4.004 3.218-5.648 1.43-1.645 2.574-3.432 2.574-4.004 0-.501-2.217-5.363-4.934-10.725-2.646-5.434-5.149-11.154-5.364-12.799-.93-5.148-1.43-5.434-7.438-4.218-7.652 1.644-8.796 1.501-10.655-1.216-2.503-3.718-2.575-4.361-.215-6.578 1.788-1.716 2.146-2.645 2.146-5.219 0-2.574-.572-4.004-3.147-7.651l-3.147-4.504 1.288-2.002c.858-1.287 1.215-2.717.929-4.147-.286-1.859.215-2.932 2.575-5.935 2.36-2.931 2.932-4.218 2.932-6.578 0-2.717-.143-2.931-2.646-3.575-9.583-2.502-8.796-2.073-8.796-4.933 0-3.289.286-3.647 4.505-6.507 3.719-2.574 3.862-3.074 2.217-7.221-1.073-2.717-1.287-2.86-4.219-2.86-2.933 0-3.29-.286-6.794-4.648-4.148-5.076-4.148-5.076-14.16-5.791-8.082-.572-9.512-1.502-7.366-4.791 1.358-2.145 1.358-2.216-.215-6.435-1.073-3.074-1.287-4.361-.644-4.576 1.288-.5 11.943-8.222 12.516-9.08.929-1.359.643-1.716-4.005-4.433-3.433-2.002-4.935-3.361-5.865-5.434-1.43-3.146-1.287-3.361 5.078-10.225 4.291-4.647 4.505-5.577 2.789-10.653-1.144-3.361-1.144-3.361.858-6.221 3.505-4.862 3.862-5.863 3.862-11.511 0-6.507-.858-7.865-5.864-9.152-3.79-1.001-3.433-.143-3.79-9.295-.072-2.217-.215-4.362-.286-4.862 0-.501-1.145-1.43-2.504-1.931l-2.36-1.001-.5-7.293c-.501-6.149-.858-7.793-2.575-10.653-1.287-2.217-2.288-5.363-2.86-8.866-.715-4.862-.644-5.577.643-8.08 1.288-2.502 4.291-7.078 5.006-9.152.716-2.073.501-3.146-1.787-9.652l-2.647-7.293-2.574.5c-5.078.93-5.221.858-8.367-3.575-1.717-2.359-3.076-4.504-3.147-4.79 0-.286 1.931-1.859 4.291-3.575 4.505-3.289 6.15-6.006 6.865-11.583.429-2.717.143-3.289-2.503-6.507-1.573-2.002-2.932-3.932-2.932-4.29 0-.429 1.645-2.431 3.647-4.504l3.648-3.79 1.144 1.573c2.431 3.432 3.719 4.29 6.436 4.076l2.646-.215.215-4.433c.214-4.218.143-4.504-3.29-8.937-1.859-2.503-3.647-5.077-3.933-5.792-.501-1.358.787-11.94 1.573-12.798.215-.286 5.936-1.001 12.587-1.645 17.45-1.644 18.236-1.787 18.737-3.003.214-.643-.429-2.788-1.43-4.933l-1.86-3.79 3.004-4.433c1.645-2.502 4.648-6.363 6.722-8.58 3.218-3.432 4.935-4.504 12.444-7.865 6.222-2.788 8.939-4.361 9.44-5.577.715-1.43 6.579-5.076 8.296-5.076.357 0 1.001.929 1.501 2.073 1.574 3.861 2.074 3.861 9.941.072l7.295-3.575-.215-2.646c-.214-2.431-.071-2.645 2.289-3.289 4.147-1.072 4.505-1.787 3.504-6.721l-.858-4.29 3.504-5.577c1.931-3.074 4.148-6.006 4.934-6.506 1.717-1.287 4.72-1.287 6.294-.143 1.072.858.929 1.215-1.717 4.29-4.076 4.79-3.504 5.863 2.861 5.219 4.72-.5 4.935-.429 5.364 1.144.214.93.429 2.36.429 3.218 0 1.287 1.215 2.431 2.574 2.431.143 0 1.86-1.502 3.862-3.218l3.647-3.217h12.873l4.649 3.718c2.646 2.073 4.863 4.504 5.077 5.505.286 1.001.501 5.077.572 9.009v7.15l-4.72 7.15c-2.574 3.933-6.365 10.153-8.439 13.8-2.073 3.718-5.149 9.009-6.936 11.797-3.076 5.005-3.791 7.15-2.504 7.937.43.214 2.504.214 4.792-.072 3.862-.429 4.434-.786 10.227-6.077 3.361-3.075 6.364-5.577 6.651-5.577.572 0 .786.572 2.431 8.079 1.144 4.934 1.573 5.863 4.005 7.794 1.573 1.144 4.934 5.434 7.652 9.438 7.509 11.225 7.295 9.724 2.217 15.444-4.863 5.505-5.364 6.721-6.079 14.443-.643 6.792-1.001 7.364-4.505 7.078-2.575-.143-3.004.143-7.867 5.22M442.611 540.114h-.143c-.358.214-.715 1.502-.715 2.717 0 1.43-.644 2.86-1.788 4.075l-1.86 2.003 1.502 2.502c1.788 3.075 1.431 3.361-5.077 5.077l-4.72 1.215-1.574 5.506-1.573 5.434 2.432 3.575c2.717 3.789 2.717 4.147.143 10.01l-1.145 2.788 1.574-.357c.929-.215 3.218-.858 5.149-1.359 2.717-.786 3.432-.715 4.148 0 .715.715.715 1.358-.572 3.646-.93 1.502-1.645 3.29-1.645 3.79 0 .501 2.074 3.217 4.505 6.22 1.144 1.43 2.074 2.431 2.861 3.575 3.218-1.287 6.579-1.93 10.083-2.502 5.722-.93 9.941-2.073 15.376-4.361l7.509-3.218 3.934 4.433c2.145 2.431 5.077 5.792 6.579 7.365l2.646 2.931 3.647-3.646 3.648-3.79 6.436-.5c7.438-.572 10.656-2.36 10.656-5.935 0-3.432-2.36-21.879-2.861-22.522-.286-.286-2.574.428-5.006 1.715-2.432 1.216-4.72 2.003-5.078 1.717-.357-.358-1.072-3.218-1.716-6.364-.572-3.075-1.359-5.863-1.645-6.149-.286-.286-3.218-.071-6.508.358-5.363.643-6.078.5-6.937-.572-.572-.858-2.717-1.43-5.864-1.931l-5.006-.715-2.503-4.147c-1.287-2.216-3.361-4.647-4.648-5.505-2.432-1.716-22.099-7.365-24.244-7.079z"/><path d="M404.422 588.948c-.215-.357-.215-1.787.071-3.217.572-3.075-.071-4.004-5.792-7.651-3.362-2.216-4.863-2.717-7.009-2.574-1.859.143-2.932-.143-3.29-.858-.357-.572-1.001-5.434-1.501-10.868l-.859-9.795 3.505-7.007 3.432-7.007 4.291-1.073 4.291-1.072-.143-4.29c-.357-7.007-.929-8.366-4.148-9.224-2.717-.786-2.86-.929-3.075-4.004-.143-2.574.286-4.004 2.217-7.15 1.287-2.145 2.646-3.861 3.004-3.718.429.072 1.144 1.43 1.716 3.003 1.001 3.075.572 2.86 10.441 5.291 2.36.572 7.152 1.216 10.585 1.502 5.935.429 6.507.357 9.44-1.359 1.716-1.001 3.289-1.859 3.504-1.859.214 0 0 1.144-.358 2.574-.643 2.217-.357 3.647 2.217 10.797 3.576 10.153 3.719 12.87.572 16.373-2.217 2.574-2.288 2.646-1.072 4.719.715 1.216 1.072 2.36.929 2.646-.214.286-2.145.929-4.291 1.43-2.217.5-4.362 1.287-4.863 1.787-.5.501-1.716 3.504-2.574 6.721l-1.717 5.863 2.575 3.575 2.575 3.575-1.431 3.647c-.786 2.002-1.359 4.147-1.215 4.719.429 2.645-20.525 6.935-22.027 4.504zm97.26-25.096l-1.072-5.863h-6.794c-4.148 0-7.223-.357-7.867-.858-.572-.429-3.075-1.072-5.507-1.358-4.934-.572-4.934-.572-8.009-5.434-2.932-4.719-6.008-6.364-17.879-9.51-5.721-1.501-10.727-2.931-11.299-3.217-.573-.286-2.289-4.076-3.791-8.366-2.717-7.364-2.789-7.936-2.002-11.583.715-3.003 1.788-4.862 5.578-9.366 4.434-5.363 4.863-5.649 7.652-5.72 1.645 0 3.361-.429 3.79-1.001.43-.501 2.217-4.719 4.005-9.367 1.717-4.647 3.361-8.58 3.505-8.794.143-.143 3.218-.072 6.865.214 6.222.501 6.579.644 7.581 2.574l1.072 2.074 5.865-.501c5.721-.429 6.007-.357 11.013 2.145 2.86 1.43 5.65 2.646 6.15 2.646.572 0 3.218-1.43 5.936-3.218 3.79-2.431 5.149-3.003 6.15-2.431.715.358 1.288 1.001 1.288 1.359 0 .429.786 1.001 1.716 1.358 1.073.429 2.36 1.931 3.218 4.004l1.502 3.361-1.43 2.002c-1.359 1.93-1.431 2.216-.43 4.147 1.216 2.288 1.86 2.431 12.873 3.432 5.65.429 5.721.5 8.582 3.718 5.65 6.292 6.007 6.578 8.653 6.578 2.074 0 2.646.286 3.219 1.787 1.072 2.789 1.001 2.86-2.79 5.291-3.647 2.36-4.362 3.861-4.362 9.081 0 2.145.215 2.431 3.075 3.146 7.009 1.93 8.725 2.645 8.94 3.646.143.644-1.288 3.146-3.076 5.577-2.789 3.79-3.289 4.862-2.932 6.721.715 4.147-.572 4.862-10.441 5.649-7.938.643-9.154.929-12.801 3.074-2.36 1.359-6.365 2.789-9.512 3.432-2.932.644-7.294 2.145-9.654 3.289-2.36 1.216-4.577 2.217-4.935 2.217-.357 0-1.072-2.646-1.645-5.935zm56.569 101.315c-.787-.858-.644-1.358.644-2.716 2.002-2.145 1.93-2.861-.644-6.936-1.144-1.931-2.861-5.363-3.862-7.651-2.002-4.719-1.716-5.148 3.29-5.148 4.005 0 5.435-1.215 6.007-5.076.286-1.502 1.073-3.289 1.788-4.004 1.359-1.144 1.502-1.073 3.862 1.144 2.217 2.145 3.003 2.431 8.939 3.074 12.015 1.359 18.451-1.644 24.101-11.225 1.359-2.36 3.576-5.291 4.934-6.578 1.502-1.358 2.432-2.86 2.432-4.004 0-2.288.929-2.932 5.721-4.29 12.587-3.575 12.301-3.432 11.943-4.862-.644-2.574 3.218-1.573 11.299 2.86 6.866 3.718 7.939 4.147 9.798 3.504 1.502-.572 2.36-.501 3.075.142.93.787.858 1.073-.572 2.431-2.503 2.36-3.218 8.366-1.216 11.083.787 1.144 1.431 2.359 1.431 2.717 0 .357-2.217 3.789-5.006 7.722-2.718 3.861-5.007 7.221-5.007 7.507 0 .215 1.288 3.647 2.861 7.651 1.573 4.004 2.861 7.579 2.861 8.008 0 .429-1.574 1.573-3.576 2.574-3.433 1.716-4.005 1.787-17.45 1.787H612.03l-.858-3.646c-.572-2.288-1.43-3.932-2.431-4.505-.787-.5-6.008-1.644-11.514-2.574l-10.012-1.572-13.803 6.863c-7.58 3.79-13.874 6.864-14.017 6.864-.143 0-.644-.5-1.144-1.144zM346.638 552.126c-7.653-.858-11.085-.929-13.231-.357-2.145.572-4.791.429-10.87-.501-4.362-.643-8.224-1.43-8.51-1.716-.215-.286.429-1.645 1.502-3.075 1.072-1.358 1.787-2.931 1.573-3.431-.215-.501-2.503-1.502-5.078-2.217-2.574-.644-4.72-1.501-4.72-1.716 0-1.144 4.291-7.007 6.723-9.367 2.503-2.431 2.574-2.574 2.574-7.865v-5.505l2.503-1.144c1.431-.715 3.29-1.216 4.22-1.216 2.932 0 8.367 2.289 9.511 4.005 1.359 2.145 2.146 2.145 4.863 0 3.004-2.431 4.863-1.43 4.22 2.288-.644 3.932 3.79 12.798 6.722 13.37 3.719.786 7.938 3.146 9.154 5.148.715 1.072 2.646 3.289 4.291 4.862 4.148 3.861 4.505 5.505 1.788 7.436-3.004 2.145-5.149 2.217-17.235 1.001z"/><path d="M333.693 516.09c-1.001-1.501-8.009-4.218-11.013-4.218-.787 0-2.718.643-4.362 1.501l-2.861 1.573-2.789-1.93c-1.573-1.001-3.218-1.859-3.647-1.859-.716 0-2.861-.93-11.514-4.791-1.502-.643-2.36-1.501-2.36-2.359 0-2.074-1.288-2.431-4.22-1.144l-2.717 1.215-4.72-2.574c-5.149-2.86-5.149-2.86-3.791-8.58l.787-3.575 3.933-.357c3.862-.358 3.934-.429 5.65-3.79 1.716-3.575 2.217-3.789 6.508-2.788 3.504.858 4.219.429 4.72-2.86.501-3.003.143-2.717 8.01-6.006 2.002-.858 2.288-1.359 2.145-3.361-.071-1.358.429-3.146 1.073-4.147 1.573-2.216 1.502-3.646-.215-6.935-2.002-3.718-1.859-5.72.572-6.721 1.86-.858 7.08-5.935 11.872-11.655 1.359-1.644 2.646-4.147 2.932-5.72.572-3.36 2.289-6.935 3.647-7.722.572-.357 1.002-1.144 1.002-1.859 0-.715.429-1.859 1.001-2.645 1.001-1.359 1.072-1.287 1.788.786 1.287 3.575 1.859 4.219 5.292 6.078 2.717 1.43 4.005 2.931 7.366 8.508l4.076 6.65-1.573 6.721-1.502 6.649 1.573 3.146c1.431 3.075 1.431 3.361.429 7.579l-1.144 4.362 2.146 1.787c1.144.93 2.36 1.788 2.574 1.788.286 0 1.431.786 2.503 1.787 1.645 1.573 1.931 2.36 1.931 5.935.072 2.216.501 4.862 1.073 5.863.572.929 1.073 3.432 1.073 5.434v3.646l-2.646.429c-4.148.715-7.009.572-7.867-.357-1.287-1.216-5.936 9.366-5.936 13.442 0 1.716-.143 3.146-.357 3.146-.215 0-1.359-.501-2.575-1.144-2.002-1.001-2.217-1.001-4.505.786l-2.36 1.788-1.002-1.502z"/><path d="M374.743 551.697c-6.079-2.073-6.722-2.431-7.438-4.576-.357-1.287-2.002-3.36-3.504-4.576-1.573-1.215-3.218-3.074-3.719-4.075-1.215-2.503-5.935-5.649-9.297-6.149-2.431-.429-2.86-.858-4.863-4.791-2.503-5.148-2.646-6.292-.715-8.723 1.002-1.287 1.431-2.931 1.431-5.505 0-2.431.572-4.791 1.787-7.15 1.931-3.79 2.504-4.004 11.085-4.505l3.219-.143.214-3.789c.215-3.504.358-3.718 2.074-3.718 1.073 0 3.218-.644 4.791-1.359 1.645-.786 5.793-2.073 9.297-2.931 7.152-1.716 13.374-5.434 14.804-8.795.429-1.072 1.144-1.93 1.573-1.93.43 0 3.862 1.716 7.653 3.861 6.865 3.932 6.937 4.004 10.941 10.582 2.217 3.646 4.649 8.079 5.436 9.938 1.43 3.218 1.644 3.361 8.081 5.577 3.647 1.287 6.937 2.574 7.294 2.932.286.286-1.144 1.716-3.218 3.074-3.862 2.431-3.862 2.503-8.868 1.788-6.722-.858-12.3-1.859-15.519-2.789-2.36-.643-2.789-1.144-4.219-5.005-1.073-2.86-1.931-4.218-2.789-4.218-.715 0-2.575 2.145-4.72 5.505-3.29 5.22-3.504 5.863-3.504 10.439 0 5.077.643 6.149 3.647 6.221 2.145 0 3.004 1.287 3.504 5.434l.501 3.575-4.005.929-4.076.858-4.077 8.223c-2.574 5.219-4.434 8.079-5.149 8.079-.572-.071-4.076-1.072-7.652-2.288z"/><path d="M429.524 508.082c-6.365-2.36-8.511-3.647-8.511-5.148 0-.429-2.217-4.505-4.934-9.009l-4.863-8.151-8.081-4.648c-7.438-4.218-8.153-4.504-8.868-3.289-3.433 5.792-8.01 8.723-16.806 10.797-3.791.929-7.867 2.216-9.011 2.788-3.719 1.931-5.149 1.502-6.794-2.073-.858-1.931-1.431-4.648-1.431-7.007v-3.861l-3.933-2.646c-4.291-2.86-4.434-3.289-3.147-8.794.716-3.075.644-3.79-.715-6.221l-1.573-2.788 1.502-6.721 1.573-6.721-4.505-7.579c-3.934-6.721-4.863-7.722-7.652-9.009-2.36-1.001-3.433-2.002-4.22-4.004-1.716-4.076-1.359-6.936 2.146-15.802 3.361-8.437 4.076-9.438 10.798-14.514 2.217-1.716 2.575-2.431 2.575-4.862s.501-3.432 3.147-6.221c3.003-3.146 3.289-3.289 4.934-2.359 1.717.858 2.146.715 7.009-2.717 2.86-2.002 5.935-3.647 6.865-3.647 1.573 0 1.645.286 1.645 4.505 0 3.718-.429 5.291-2.217 8.58l-2.217 4.075 2.575 3.432 2.503 3.432 7.723.93c4.792.572 9.083 1.501 11.371 2.502 3.576 1.645 3.647 1.716 3.576 4.719-.072 3.003.071 3.218 3.433 5.148l3.504 2.074 5.22-1.573 5.293-1.573 3.432 2.86c3.075 2.574 3.433 3.146 3.791 6.721.214 2.431 1.358 5.863 3.146 9.366l2.789 5.577h4.577c4.434 0 4.72.072 9.44 3.861 4.434 3.504 5.364 3.933 11.157 4.934l6.293 1.144 5.006 5.434 5.006 5.362h13.803l4.076-3.36 4.076-3.361 4.077 4.433c3.862 4.147 4.291 4.433 7.294 4.433 2.289 0 4.22.644 7.438 2.503 2.36 1.43 4.791 2.86 5.363 3.146.644.357 1.002 1.287.859 2.431-.429 3.503 2.36 8.151 6.221 10.582 2.003 1.215 3.433 2.574 3.219 2.931-.859 1.287-10.227 7.007-11.586 7.007-.715 0-1.931-.643-2.646-1.43-.715-.786-1.716-1.43-2.217-1.43-.5 0-3.433 1.502-6.436 3.361l-5.435 3.36-5.292-2.717c-5.221-2.717-5.436-2.717-10.656-2.288-5.292.501-5.364.501-6.151-1.358-.5-1.001-1.573-2.002-2.36-2.145-3.003-.572-14.517-1.001-15.232-.501-.429.286-2.074 3.933-3.648 8.08-4.004 10.653-4.004 10.653-7.223 10.653-2.574 0-3.075.358-7.223 5.291-2.503 3.003-5.077 5.363-5.649 5.363-.572 0-3.862-1.073-7.223-2.288z"/><path d="M514.484 459.319c-4.077-2.431-6.294-3.217-8.439-3.217-2.575 0-3.29-.429-6.58-4.004-5.363-5.792-5.363-5.792-10.155-1.716l-4.148 3.575H472.79l-4.791-5.291-4.792-5.291-6.508-1.216c-6.007-1.215-6.937-1.644-11.37-5.148-4.72-3.646-5.078-3.789-9.441-3.861h-4.505l-2.718-5.863c-1.716-3.861-2.646-6.935-2.646-8.866 0-2.717-.357-3.289-3.718-6.292-2.074-1.787-4.291-3.217-4.935-3.217-.715 0-3.218.572-5.721 1.358l-4.434 1.43-3.004-1.787c-2.717-1.573-3.003-2.002-3.003-4.719 0-4.576-3.648-6.364-15.805-7.794-7.295-.858-7.366-.858-9.083-3.432-2.217-3.217-2.217-3.503 0-7.364 1.431-2.574 1.788-4.076 1.788-8.58v-5.506l2.146-.429c1.144-.286 3.718-1.93 5.649-3.646 3.29-3.003 4.077-3.289 9.869-4.29 8.582-1.502 7.939-1.216 13.588-6.578 3.719-3.575 5.364-5.72 6.008-7.937.786-2.645.786-3.217-.143-3.718-3.147-1.93-3.147-1.787-.429-5.791 1.501-2.074 2.646-4.219 2.646-4.648 0-.429-.859-2.502-1.86-4.504-1.859-3.718-1.859-5.72-.071-5.72.5 0 4.076 4.79 7.938 10.725 5.006 7.579 7.437 10.725 8.367 10.725.858 0 2.217-1.287 3.576-3.432 2.789-4.433 3.147-6.078 1.716-8.294-.929-1.43-1.072-2.646-.643-5.863.5-4.076.5-4.076-2.146-6.292l-2.717-2.217 1.716-2.145c.858-1.144 2.861-4.647 4.291-7.793 2.503-5.506 2.574-5.792 1.502-7.651-1.931-3.289-.859-5.076 5.792-9.223 5.364-3.361 6.58-4.576 11.443-11.154 3.504-4.791 5.936-7.436 6.794-7.436 1.359 0 9.297 2.717 10.226 3.575.358.286.358 2.145.072 4.218-.429 3.146-1.216 4.576-5.364 9.796-2.717 3.432-4.934 6.792-4.934 7.65 0 .787.5 3.361 1.144 5.649 1.144 4.075 1.144 4.218-.715 9.795-1.001 3.146-1.86 6.292-1.86 7.007 0 .715-1.144 4.719-2.503 8.795-1.358 4.075-2.503 8.079-2.503 8.866 0 .786.859 3.432 1.86 5.791l1.788 4.362-2.932 5.505c-1.645 3.003-3.219 5.506-3.576 5.506-.358 0-2.575 2.359-5.006 5.362-4.22 5.22-4.363 5.363-7.581 5.363-1.716 0-5.435-.715-8.081-1.502-10.012-3.074-11.8-.786-4.863 6.292 4.934 5.077 10.227 8.008 14.303 8.08 4.291 0 12.587-4.219 15.733-8.151 1.502-1.859 4.649-4.648 7.009-6.221l4.219-2.86v-8.151c0-9.152.358-10.01 4.792-10.796 4.076-.787 6.007.715 7.223 5.434 2.36 9.581 2.217 9.295 4.291 9.295 1.072 0 3.003-.715 4.362-1.502l2.36-1.43-.501-5.148c-.286-2.86-.786-5.863-1.072-6.649-.358-.858-2.789-3.075-5.435-5.005-4.077-2.932-5.65-3.575-9.87-4.219-4.433-.643-5.077-.929-5.506-2.502-1.216-4.505-.715-6.793 2.932-12.513 2.002-3.146 3.576-6.006 3.576-6.435 0-.429-.787-3.932-1.717-7.865-2.002-8.008-1.788-8.937 2.575-12.941 3.647-3.432 8.796-6.864 9.011-6.149.143.429-.93 3.718-2.289 7.507-1.43 3.718-2.574 7.15-2.574 7.579 0 1.573 13.659 9.367 16.52 9.367 1.645 0 3.432-1.859 3.504-3.504 0-.5-2.074-3.289-4.649-6.149-2.574-2.86-4.648-5.72-4.648-6.292 0-1.93 1.43-2.216 3.147-.572 1.788 1.645 3.361 1.859 5.506.715 1.86-.929 1.717-2.288-.5-6.077-1.502-2.574-1.717-3.361-1.002-4.29 2.146-2.503 5.15-.215 3.362 2.645-.715 1.144-.644 1.573.214 2.288.644.429 2.575 2.36 4.291 4.29l3.075 3.432-3.289 3.361c-1.86 1.859-3.362 3.718-3.362 4.147 0 .5 1.431 2.431 3.219 4.433 3.432 3.718 3.718 5.076 2.431 9.509-.644 2.074-2.002 3.647-5.721 6.507-2.646 2.073-5.006 4.147-5.221 4.647-.357.787 2.861 5.935 6.866 10.94 1.931 2.431 2.002 2.431 5.006 1.644 1.716-.5 3.289-.643 3.576-.357.286.286 1.358 2.86 2.36 5.72l1.787 5.148-3.575 7.078-3.576 7.007.787 5.649c.572 3.861 1.501 6.864 3.003 9.581 1.931 3.432 2.217 4.79 2.503 10.725.358 7.364.93 9.295 2.861 9.295 2.431 0 3.003 1.501 3.003 7.936 0 6.936.501 7.722 5.364 8.866 3.576.858 3.933 1.573 3.933 7.079 0 4.933-.143 5.362-2.932 9.295l-3.003 4.147 1.215 3.718c.644 2.073 1.145 4.218 1.145 4.79 0 1.287-7.009 9.224-8.082 9.224-.5 0-3.361-1.502-6.364-3.218zm-241.221 110.11c-.214-.572-.071-2.073.358-3.36 1.001-2.86.214-3.933-3.719-4.576-5.435-.858-5.721-1.287-3.862-5.148.93-1.859 2.432-5.363 3.361-7.865 2.074-5.72 6.937-10.582 9.869-9.867 4.863 1.215 5.364 1.001 7.795-3.504 3.791-7.007 2.933-9.581-2.717-8.294-2.432.501-4.506.358-9.154-.643-3.29-.715-6.15-1.573-6.436-1.931-.286-.357-1.145-2.002-1.86-3.718l-1.359-3.074 1.788-1.359c3.075-2.431 4.649-2.431 7.581-.143 2.288 1.859 3.576 2.217 8.51 2.646 6.723.643 6.58.715 8.868-6.221.858-2.645 1.788-4.79 2.003-4.79 1.501 0 16.52 6.578 18.307 8.008 1.717 1.358 2.146 2.288 2.432 5.648.286 4.004.286 4.004-3.29 8.008-3.647 4.004-6.579 8.795-6.579 10.725 0 .644 1.716 1.502 4.648 2.288 2.575.715 4.649 1.43 4.649 1.573 0 .215-.715 1.573-1.502 3.075-1.859 3.289-2.575 3.289-11.943-.143-6.651-2.431-8.296-2.217-10.513 1.072-1.073 1.716-1.073 2.145.644 7.365 1.859 5.934 1.502 7.007-1.645 5.291-2.074-1.144-7.652-.93-8.939.357-.573.572-1.288 2.503-1.574 4.29-.214 1.788-.929 3.718-1.502 4.29-1.358 1.359-3.718 1.359-4.219 0z"/><path d="M267.756 589.949c-3.432-2.145-4.362-2.431-5.363-1.716-3.719 2.646-4.291 2.646-7.223-.214-2.289-2.145-2.932-3.432-3.29-6.292-.858-5.792-4.72-8.294-9.941-6.292-2.002.786-1.859.858-7.08-5.291l-1.787-2.145-5.936 1.215c-3.29.715-6.365 1.287-6.866 1.287-.5 0-1.215-1.287-1.645-2.788-.357-1.573-1.287-3.504-2.002-4.433-1.144-1.359-1.502-1.43-2.861-.715-.858.429-1.859.643-2.217.429-.357-.215-1.144-3.361-1.859-7.007-.715-3.647-1.573-7.15-1.859-7.794-.358-.715-2.074-1.859-3.862-2.645-3.147-1.43-3.218-1.502-3.218-4.934 0-4.647-.715-5.219-6.079-4.647l-4.434.357-.429-2.288c-.715-3.36-.787-3.289 2.36-4.218 1.716-.501 3.504-1.716 4.505-3.075 1.002-1.358 3.719-3.146 7.295-4.862 4.934-2.359 6.508-3.503 11.657-9.152 3.218-3.575 5.864-7.078 5.864-7.793 0-.787 1.001.143 2.503 2.431 2.289 3.36 2.503 4.147 2.575 8.937 0 4.505.429 6.292 3.432 13.728 3.147 7.722 3.362 8.723 2.789 11.726-.858 4.648-.429 5.363 3.004 4.934 1.573-.215 3.004-.143 3.218.214.572.858-.929 4.362-2.288 5.363-1.073.786-1.001 1.072.357 3.289 1.359 2.288 1.431 2.645.501 4.504-1.788 3.361-1.359 4.433 1.645 4.934 4.076.715 6.436.572 8.01-.429 1.215-.715 1.787-.501 4.219 1.93 3.361 3.218 4.434 3.075 6.508-1.001.786-1.573 2.002-2.86 2.646-2.86 2.86 0 10.227 1.716 10.227 2.431 0 .429-.501 2.288-1.216 4.147l-1.216 3.361 4.005 5.934c6.079 9.224 5.936 8.652 3.361 11.583-1.216 1.43-2.574 2.574-3.004 2.503-.5 0-2.717-1.144-5.006-2.646z"/><path d="M251.308 563.924c-2.36-1.931-2.932-2.145-4.506-1.43-1.859.858-6.865 1.144-7.58.429-.215-.215-.072-1.502.357-2.86.501-1.573.501-2.932.072-4.004-.501-1.144-.358-2.646.572-5.434 1.859-5.72 1.859-5.864-2.217-5.864h-3.504l.357-3.789c.358-3.36 0-4.647-2.932-11.511-2.646-6.292-3.289-8.509-3.289-11.941 0-3.861.286-4.719 3.361-9.295 2.36-3.575 3.504-6.077 3.79-8.365l.358-3.361 5.363-1.644c6.437-2.002 7.009-2.431 5.793-4.719-1.43-2.574-.787-3.289 4.005-5.148l4.434-1.645 1.788 2.36c1.43 1.93 2.431 2.431 5.363 2.86 3.791.5 5.364 1.93 7.939 7.078.572 1.144 1.859 2.36 2.86 2.717 1.001.429 2.432 1.287 3.218 2.002 2.718 2.431 11.085 6.65 12.515 6.292 1.788-.5 1.788.643.072 5.577l-1.287 3.575-4.077.215c-4.291.214-7.223-1.002-10.083-4.148-.715-.786-1.717-1.43-2.289-1.43-1.788 0-8.796 5.148-8.796 6.435 0 2.217 3.719 9.939 4.934 10.297 4.863 1.43 11.729 2.574 14.518 2.431 1.859-.072 3.647.071 3.862.286.286.286-.358 1.93-1.431 3.718-1.787 3.074-1.93 3.146-4.004 2.431-1.216-.429-2.861-.572-3.791-.358-1.859.501-9.082 7.15-9.082 8.365 0 .501-1.43 4.362-3.29 8.58-2.574 6.149-3.576 7.794-4.791 8.009-.93.071-2.146 1.215-3.004 2.86-.787 1.501-1.716 2.717-2.145 2.645-.358 0-1.931-1.001-3.433-2.216zm-101.909-23.238c-.358-.715-.93-2.431-1.216-3.789-.286-1.43-1.645-5.506-3.075-9.152-2.217-5.792-2.789-6.721-4.506-7.079-1.215-.214-2.431-1.287-3.432-3.146-1.145-2.073-2.146-2.86-3.862-3.217l-2.36-.429.071-6.221c0-4.004-.286-6.721-.858-7.364-.5-.572-3.361-1.645-6.365-2.431-4.934-1.216-5.578-1.573-6.579-3.647-.858-1.859-.93-2.717-.286-4.004.429-.858.93-2.86 1.001-4.433.215-2.788.358-2.931 5.578-5.577 2.932-1.43 5.722-2.645 6.151-2.645.357 0 2.002 1.287 3.575 2.931 1.502 1.573 5.006 4.862 7.652 7.222 4.434 3.932 5.436 4.504 11.157 6.006 4.863 1.287 6.937 2.288 9.082 4.147 1.502 1.43 4.148 3.074 5.936 3.646 1.859.644 3.719 1.43 4.291 1.645 2.789 1.43 13.945 25.883 12.229 26.955-.93.572-15.447 3.003-21.598 3.647-5.292.5-6.794 1.573-8.081 5.505-.858 2.646-3.432 3.432-4.505 1.43zm34.971-16.803c-1.431-4.647-6.866-15.801-8.868-18.304-.572-.715-.286-1.072.929-1.358 1.502-.429 1.574-.644 1.073-5.434-.572-6.078-.429-6.221 6.508-6.221 4.792 0 5.221.143 8.868 2.86 2.145 1.573 4.005 2.86 4.148 2.86.143 0 1.931-1.43 4.005-3.217l3.79-3.218 1.573 2.145c1.788 2.503 2.932 2.646 4.72.715 1.645-1.859 2.646-1.859 4.792.215 1.144 1.072 2.074 3.074 2.717 6.006l.93 4.433-5.292 5.934c-6.293 7.007-5.578 6.435-11.371 8.938-2.861 1.215-5.793 3.146-7.581 5.005-1.859 1.859-3.647 3.074-4.648 3.074-.93 0-2.36.143-3.147.358-1.287.357-1.716-.215-3.146-4.791z"/><path d="M225.062 505.365c-1.645-2.359-3.218-4.076-3.576-3.861-.572.357-2.145-3.861-2.145-5.863 0-.929-4.506-4.505-5.722-4.505-.5 0-1.716.644-2.717 1.43l-1.931 1.502-1.573-2.002c-.93-1.144-1.645-2.36-1.645-2.788 0-.43-.787-1.502-1.645-2.36-.93-.858-2.074-2.86-2.575-4.433-.715-2.502-1.072-2.789-3.146-2.789-2.646-.071-3.362-.428-5.006-3.002-1.002-1.645-1.788-2.002-4.935-2.145-2.646-.143-3.862-.573-4.005-1.288-.143-.786.429-1.143 1.788-1.143 1.144 0 3.576-.072 5.435-.144l3.504-.143-.286-3.002-.214-3.003 3.933-1.287c2.146-.715 6.866-2.217 10.513-3.361l6.508-2.074 2.574 1.717c1.717 1.215 3.075 1.573 4.291 1.287 1.86-.429 2.003-.143 3.719 9.295.572 3.146 2.861 8.722 3.79 9.295.358.214 3.433-.573 6.866-1.717 3.433-1.215 6.579-1.93 6.865-1.787 1.288.786.572 3.218-1.502 5.577-2.646 3.003-2.646 3.789-.357 4.361 2.288.573 4.148 4.005 2.503 4.577-.572.214-3.004 1.072-5.364 1.859l-4.291 1.501-.357 3.289c-.286 2.145-1.288 4.719-3.075 7.364-1.431 2.146-2.789 4.004-3.004 4.004-.143 0-1.645-1.93-3.218-4.361z"/><path d="M170.496 500.789c-1.931-.572-4.792-1.859-6.365-2.931l-2.932-1.859 4.148-3.718 4.219-3.718-.93-4.29c-.5-2.36-.786-5.506-.643-7.079l.214-2.86 3.862-.214c3.504-.215 3.862-.429 4.577-2.36.429-1.144 1.144-2.073 1.573-2.073 1.645 0 3.862 2.216 4.077 4.075.143 1.073.715 2.002 1.287 2.074 7.938 1.072 7.867 1.072 8.939 3.146.93 1.716 1.574 2.145 3.648 2.145 2.217 0 2.646.286 3.647 2.645.572 1.502 1.788 3.432 2.575 4.362l1.573 1.644-3.361 3.218-3.433 3.217-3.79-2.931c-3.576-2.646-4.148-2.86-8.439-2.86-2.503 0-5.793.357-7.366.786l-2.718.715.429 4.934c.572 5.577.787 5.434-4.791 3.932zm103.554-4.505c-.429-.286-1.86-2.288-3.147-4.433-1.287-2.216-2.432-4.004-2.503-4.147-.143-.071-1.931-.5-4.076-.858-3.004-.572-4.291-1.287-5.865-3.074-1.788-2.074-4.362-6.935-3.933-7.364.143-.072 1.43-.644 2.932-1.287 1.43-.572 2.646-1.502 2.646-2.074 0-.501 1.287-3.646 2.861-6.864 1.788-3.718 2.86-6.936 2.86-8.652 0-4.29.787-7.007 2.503-8.794.859-.858 2.074-2.574 2.647-3.718 1.001-1.859 1.001-2.431.071-5.005-.93-2.789-.93-2.931.644-4.218 2.717-2.145 7.509-6.722 8.081-7.58.214-.429-1.359-2.645-3.576-4.933-3.933-4.218-4.005-4.29-3.79-8.079.214-3.647.357-3.79 2.288-4.076 1.145-.071 3.147 0 4.506.215 2.002.429 2.717 1.072 4.005 3.861 1.573 3.217 1.716 3.36 7.509 5.076l5.864 1.716 7.151-1.287c7.939-1.502 8.94-1.358 18.809 2.217 3.004 1.072 5.507 2.43 5.507 2.931 0 .5-.644 2.145-1.431 3.575-.786 1.501-1.43 3.504-1.43 4.576 0 3.289-10.37 14.943-14.661 16.373l-2.646.858.358 3.361c.214 1.859.93 4.504 1.645 5.934 1.144 2.431 1.144 2.718.071 4.434-.643 1.001-1.215 2.717-1.215 3.932 0 1.931-.358 2.217-4.077 3.575-4.577 1.716-5.936 3.003-5.936 5.649 0 1.716-.071 1.716-4.291 1.287l-4.219-.501-1.788 3.575-1.859 3.575-4.077.214-4.147.215-1.073 4.934c-1.073 4.862-1.788 5.934-3.218 4.861z"/><path d="M152.975 491.994c-6.508-1.859-6.937-2.145-13.374-8.008-3.647-3.36-6.865-6.578-7.08-7.078-.286-.572.072-1.359.644-1.788.93-.715 1.073-2.288.93-9.366l-.215-8.509 1.931-.715c2.789-1.001 10.656 4.219 13.874 9.295 2.932 4.505 3.29 4.791 5.006 3.504 1.144-.787 1.859-.715 5.292.786 5.936 2.646 6.222 3.146 6.651 11.226l.286 6.935-3.29 2.86c-1.788 1.573-3.432 2.789-3.647 2.789-.215 0-3.361-.93-7.008-1.931zm91.253-8.222c1.216-1.287 1.573-2.574 1.573-5.363 0-4.504-.071-4.504-8.439-1.787-5.864 1.93-6.007 1.93-7.008.572-1.359-1.859-1.287-3.218.501-7.865 1.001-2.789 1.859-3.933 2.789-3.933 1.788 0 2.646-1.287 3.218-5.005.715-4.361 1.001-4.647 4.219-4.647 2.718 0 2.932-.215 6.151-5.363 3.933-6.149 3.575-6.077 11.442-2.288l5.364 2.646-.215 5.005c-.143 3.146-.644 5.791-1.43 7.15-.715 1.144-2.003 3.861-2.861 6.077-1.359 3.289-2.074 4.076-4.505 5.148-2.575 1.073-2.861 1.43-2.432 2.86 1.359 4.219 1.001 5.005-3.576 6.721-5.578 2.217-6.794 2.217-4.791.072z"/><path d="M161.556 468.757c-4.434-2.145-6.15-2.645-6.722-2.073-1.359 1.287-1.716 1.072-3.79-2.431-1.288-2.217-3.433-4.29-6.794-6.507l-5.006-3.289 2.717-2.931c1.502-1.645 3.791-4.219 5.149-5.72 3.648-4.004 4.506-4.291 8.654-2.932l3.504 1.144v5.005c0 4.219.357 5.505 2.217 8.866 1.216 2.145 2.431 4.076 2.789 4.219.286.214 2.861-.787 5.65-2.145 2.86-1.359 5.292-2.432 5.435-2.432.143 0 .929 1.287 1.716 2.86l1.502 2.86-2.146 4.29-2.145 4.29-3.433-.071c-2.431-.071-5.006-.858-9.297-3.003zm19.81.214c-2.074-1.716-2.217-2.073-1.573-4.075.5-1.287.5-2.574.143-3.146-1.073-1.716-.715-2.431 1.716-3.504 2.074-1.001 2.289-1.43 2.503-4.79.215-3.647.286-3.79 2.718-4.219 1.359-.286 4.219 0 6.508.572l4.147 1.001 1.288 3.861c.643 2.145 1.43 4.433 1.645 5.148.286.93-.573 1.716-3.791 3.218-3.933 1.859-4.148 2.145-3.933 4.29.215 2.645-.072 2.788-5.364 3.217-3.218.286-4.005.072-6.007-1.573zm46.27-.142c-.214-.501-1.215-5.935-2.288-11.941-1.144-6.077-2.432-11.44-2.861-11.869-.929-.93-12.157-3.647-13.802-3.289-.572.071-1.931.858-3.004 1.644-1.144.858-2.145 1.359-2.288 1.216-.143-.143-.501-1.788-.715-3.575-.358-2.932-.215-3.432 2.145-5.863 1.502-1.645 2.932-2.574 3.719-2.36a35.2 35.2 0 012.789.787c1.216.357 2.503-.072 4.505-1.502 1.502-1.072 2.789-2.216 2.789-2.502 0-.358-1.716-2.002-3.861-3.646-2.146-1.716-3.934-3.432-3.934-3.933-.071-.429 1.502-1.787 3.362-3.003 3.075-2.002 4.076-2.217 8.581-2.217h5.149v-4.575c0-3.861.286-4.72 1.788-6.15 1.002-.929 1.788-2.144 1.788-2.645 0-.572.715-2.36 1.502-4.004 1.216-2.288 1.359-3.217.715-4.218-.715-1.144-.214-1.574 4.22-3.79 2.717-1.359 5.292-2.503 5.649-2.503.358 0 1.216.858 1.86 1.931 1.215 1.787 1.215 2.145.071 6.578-.93 3.432-1.931 5.434-3.862 7.364l-2.574 2.717.786 3.718c1.431 6.936 3.147 12.012 4.077 12.012.5 0 2.574-1.501 4.648-3.217 2.074-1.788 3.791-3.218 3.862-3.218.072 0 2.575.644 5.507 1.43 2.932.787 7.008 1.43 8.939 1.43 3.433.072 3.719.215 7.152 4.076l3.575 4.004-5.006 4.576-4.934 4.576 1.144 3.146c1.144 3.074 1.144 3.075-1.001 6.006-1.144 1.573-2.289 2.931-2.432 2.931-.214 0-1.859-.786-3.79-1.787-6.222-3.146-10.942-4.719-11.943-3.861-.501.358-2.217 2.931-3.79 5.648-2.932 4.862-3.004 4.934-6.294 5.148l-3.432.215-.93 4.433c-.787 3.503-1.287 4.504-2.289 4.504-1.573 0-2.574 1.144-3.218 3.718-.572 2.288-1.645 3.218-2.074 1.86z"/><path d="M202.678 460.606c-.143-.358-1.073-3.075-1.931-6.149-1.002-3.432-2.074-5.649-2.789-5.792-.644-.214-3.004-.715-5.293-1.144l-4.147-.858.214-4.004.215-3.932 3.218-.93c2.717-.858 3.433-.786 4.791.072.859.572 2.074 1.072 2.575 1.072.715 0 1.216 1.287 1.502 4.29.572 5.005 1.215 5.22 5.435 2.217l2.86-2.074 5.865 1.359c3.218.786 6.007 1.501 6.079 1.644.143.072.715 2.86 1.287 6.149.929 5.291.929 6.149 0 7.079-.93.929-1.287.858-3.075-.501-1.145-.786-2.503-1.573-3.076-1.716-.858-.143-8.724 2.002-12.372 3.432-.5.215-1.144.072-1.358-.214z"/><path d="M162.844 456.245c-1.145-2.288-1.86-5.077-2.146-8.723l-.357-5.291-4.363-1.287c-4.362-1.287-7.294-3.861-6.508-5.863.215-.429 4.935-2.86 10.513-5.434 7.938-3.647 10.37-5.077 11.156-6.65 1.216-2.216 1.073-2.216 4.649-1.144 2.503.715 2.86.644 4.791-.929 1.788-1.502 3.147-1.859 8.153-2.217 3.361-.214 6.723-.786 7.581-1.358 1.43-.858 1.931-.715 4.863.858 1.788 1.001 5.792 3.861 8.939 6.363 5.578 4.362 5.65 4.576 4.434 5.935-1.216 1.287-3.719 1.358-6.937.143-.572-.215-2.503 1.215-4.362 3.217l-3.362 3.575-1.93-1.43c-1.788-1.358-2.003-1.358-6.508-.143l-4.649 1.287-.214 4.862c-.215 4.648-.286 4.862-2.289 5.577-2.002.715-2.145 1.001-2.145 4.505 0 3.289-.215 3.861-1.86 4.719-1.645.929-1.931.858-2.789-.215-1.144-1.644-1.645-1.573-6.937.93-2.431 1.144-4.863 2.145-5.22 2.145-.429 0-1.574-1.573-2.503-3.432z"/></svg><svg viewBox="0 0 16 16" id="phone" xmlns="http://www.w3.org/2000/svg"><g clip-path="url(#fa)"><path d="M12.2 10c-1.1-.1-1.7 1.4-2.5 1.8C8.4 12.5 6 10 6 10S3.5 7.6 4.1 6.3c.5-.8 2-1.4 1.9-2.5-.1-1-2.3-4.6-3.4-3.6C.2 2.4 0 3.3 0 5.1c-.1 3.1 3.9 7 3.9 7 .4.4 3.9 4 7 3.9 1.8 0 2.7-.2 4.9-2.6 1-1.1-2.5-3.3-3.6-3.4z"/></g><defs><clipPath id="fa"><path d="M0 0h16v16H0z"/></clipPath></defs></svg></svg>